<svg width="20" height="20" viewBox="0 0 20 20" fill="none" xmlns="http://www.w3.org/2000/svg">
<path fill-rule="evenodd" clip-rule="evenodd" d="M16.7332 9.99935C16.7332 13.7181 13.7186 16.7327 9.99984 16.7327C6.28112 16.7327 3.2665 13.7181 3.2665 9.99935C3.2665 6.28063 6.28112 3.26602 9.99984 3.26602C13.7186 3.26602 16.7332 6.28063 16.7332 9.99935ZM18.3332 9.99935C18.3332 14.6017 14.6022 18.3327 9.99984 18.3327C5.39746 18.3327 1.6665 14.6017 1.6665 9.99935C1.6665 5.39698 5.39746 1.66602 9.99984 1.66602C14.6022 1.66602 18.3332 5.39698 18.3332 9.99935ZM9.1665 5.83268C9.1665 5.37244 9.5396 4.99935 9.99984 4.99935C10.4601 4.99935 10.8332 5.37244 10.8332 5.83268V9.99935H14.1665C14.6267 9.99935 14.9998 10.3724 14.9998 10.8327C14.9998 11.2929 14.6267 11.666 14.1665 11.666H9.99984C9.5396 11.666 9.1665 11.2929 9.1665 10.8327V5.83268Z" fill="#C02926"/>
</svg>
