<svg width="263" height="263" viewBox="0 0 263 263" fill="none" xmlns="http://www.w3.org/2000/svg">
<path d="M247.836 246.936C247.836 247.009 195.762 247.072 131.506 247.072C67.2496 247.072 15.165 247.009 15.165 246.936C15.165 246.862 67.239 246.799 131.506 246.799C195.772 246.799 247.836 246.857 247.836 246.936Z" fill="#263238"/>
<path d="M210.4 154.203L206.355 152.394L230.441 122.064L234.37 123.153C234.957 123.315 235.482 123.651 235.875 124.116L239.788 128.724C240.058 129.042 240.19 129.454 240.157 129.87C240.123 130.286 239.926 130.672 239.609 130.943L212.573 153.893C212.277 154.145 211.916 154.308 211.532 154.363C211.147 154.418 210.755 154.362 210.4 154.203Z" fill="#455A64"/>
<path d="M237.715 152.067L233.339 155.749C233.1 155.954 232.81 156.091 232.501 156.146C232.191 156.201 231.872 156.174 231.577 156.065L228.284 154.892C227.874 154.739 227.533 154.442 227.327 154.056L209.411 120.281L213.451 121.454C213.972 121.606 214.436 121.908 214.787 122.322L237.905 149.558C238.211 149.917 238.363 150.382 238.328 150.852C238.292 151.322 238.072 151.759 237.715 152.067Z" fill="#455A64"/>
<g opacity="0.3">
<path d="M210.4 154.203L206.355 152.394L230.441 122.064L234.37 123.153C234.957 123.315 235.482 123.651 235.875 124.116L239.788 128.724C240.058 129.042 240.19 129.454 240.157 129.87C240.123 130.286 239.926 130.672 239.609 130.943L212.573 153.893C212.277 154.145 211.916 154.308 211.532 154.363C211.147 154.418 210.755 154.362 210.4 154.203Z" fill="black"/>
<path d="M237.715 152.067L233.339 155.749C233.1 155.954 232.81 156.091 232.501 156.146C232.191 156.201 231.872 156.174 231.577 156.065L228.284 154.892C227.874 154.739 227.533 154.442 227.327 154.056L209.411 120.281L213.451 121.454C213.972 121.606 214.436 121.908 214.787 122.322L237.905 149.558C238.211 149.917 238.363 150.382 238.328 150.852C238.292 151.322 238.072 151.759 237.715 152.067Z" fill="black"/>
</g>
<path d="M235.099 127.216L231.124 122.532C230.694 122.024 229.934 121.962 229.426 122.393L202.035 145.639C201.528 146.069 201.466 146.829 201.896 147.336L205.871 152.021C206.302 152.528 207.062 152.59 207.569 152.16L234.96 128.914C235.468 128.483 235.53 127.723 235.099 127.216Z" fill="#455A64"/>
<path d="M203.777 124.674L208.589 120.589C208.802 120.409 209.078 120.32 209.356 120.343C209.634 120.366 209.892 120.498 210.072 120.711L233.434 148.239C233.641 148.482 233.742 148.798 233.716 149.116C233.69 149.435 233.538 149.73 233.295 149.936L228.599 153.922C228.355 154.129 228.039 154.23 227.721 154.204C227.403 154.178 227.108 154.026 226.901 153.783L203.655 126.392C203.448 126.148 203.347 125.832 203.373 125.514C203.399 125.195 203.55 124.9 203.794 124.694L203.777 124.674Z" fill="#455A64"/>
<path d="M211.452 138.996C210.187 140.259 208.858 141.456 207.47 142.583C206.142 143.781 204.753 144.91 203.31 145.966C204.575 144.702 205.904 143.503 207.291 142.373C208.62 141.177 210.009 140.05 211.452 138.996Z" fill="white"/>
<path d="M229.594 123.484C229.646 123.542 227.637 125.32 225.117 127.455C222.598 129.591 220.515 131.269 220.468 131.211C220.42 131.153 222.419 129.38 224.944 127.245C227.469 125.109 229.546 123.426 229.594 123.484Z" fill="white"/>
<path d="M212.352 134.656C212.294 134.703 210.742 132.815 208.886 130.448C207.029 128.081 205.572 126.114 205.63 126.066C206.858 127.409 208.016 128.814 209.101 130.274C210.26 131.678 211.345 133.14 212.352 134.656Z" fill="white"/>
<path d="M226.217 150.436C224.955 149.274 223.758 148.045 222.629 146.754C221.432 145.524 220.303 144.23 219.247 142.877C220.505 144.043 221.702 145.272 222.834 146.559C224.029 147.791 225.158 149.085 226.217 150.436Z" fill="white"/>
<path d="M19.4311 148.483L18.5947 145.369L41.1443 149.861L61.064 121.852L63.4941 126.375C63.6805 126.719 63.7782 127.104 63.7782 127.496C63.7782 127.887 63.6805 128.272 63.4941 128.616L46.1992 160.276C45.8913 160.838 45.4741 161.334 44.972 161.732C44.4699 162.131 43.8931 162.425 43.2755 162.598C42.6579 162.77 42.0121 162.818 41.376 162.737C40.7399 162.656 40.1264 162.449 39.5716 162.127L22.1189 152.012C21.4607 151.63 20.8845 151.121 20.4233 150.516C19.962 149.91 19.6249 149.219 19.4311 148.483Z" fill="#72CA64"/>
<g opacity="0.3">
<path d="M19.4311 148.483L18.5947 145.369L41.1443 149.861L61.064 121.852L63.4941 126.375C63.6805 126.719 63.7782 127.104 63.7782 127.496C63.7782 127.887 63.6805 128.272 63.4941 128.616L46.1992 160.276C45.8913 160.838 45.4741 161.334 44.972 161.732C44.4699 162.131 43.8931 162.425 43.2755 162.598C42.6579 162.77 42.0121 162.818 41.376 162.737C40.7399 162.656 40.1264 162.449 39.5716 162.127L22.1189 152.012C21.4607 151.63 20.8845 151.121 20.4233 150.516C19.962 149.91 19.6249 149.219 19.4311 148.483Z" fill="black"/>
</g>
<path d="M18.6574 143.886L21.9081 138.132C22.1316 137.735 22.4987 137.438 22.934 137.303C23.3693 137.168 23.8398 137.205 24.2488 137.406L37.2936 143.797C37.7108 144 38.1905 144.033 38.6319 143.89C39.0733 143.747 39.442 143.438 39.6606 143.029L52.6002 118.749C52.7149 118.533 52.8725 118.344 53.0632 118.191C53.254 118.039 53.474 117.928 53.7095 117.863C53.945 117.799 54.1912 117.784 54.4328 117.819C54.6745 117.854 54.9064 117.937 55.1144 118.065L60.3744 121.3C60.7647 121.539 61.0483 121.919 61.1667 122.362C61.2851 122.804 61.2294 123.275 61.0109 123.677L44.0947 154.612C43.5482 155.612 42.6295 156.357 41.5376 156.685C40.4458 157.012 39.2687 156.897 38.2614 156.363L19.3728 146.369C19.159 146.257 18.9701 146.103 18.8175 145.916C18.6649 145.729 18.5518 145.512 18.485 145.28C18.4181 145.048 18.3989 144.805 18.4286 144.566C18.4582 144.326 18.536 144.095 18.6574 143.886Z" fill="#72CA64"/>
<path d="M36.4048 145.27C36.1635 145.199 35.9293 145.106 35.7052 144.992L33.8484 144.15C32.2704 143.424 30.1349 142.409 27.7679 141.273L26.0373 140.442L25.2168 140.047C24.9748 139.914 24.7081 139.832 24.433 139.805C24.1802 139.783 23.9255 139.812 23.6842 139.891C23.4429 139.97 23.2199 140.096 23.0286 140.263C22.7111 140.591 22.4531 140.972 22.2659 141.389L21.2507 143.161C21.1354 143.384 20.9998 143.595 20.8457 143.792C20.9272 143.555 21.0311 143.326 21.156 143.109L22.0923 141.294L22.4079 140.694C22.5275 140.467 22.686 140.262 22.8761 140.089C23.0904 139.9 23.3405 139.756 23.6116 139.666C23.8827 139.576 24.1692 139.541 24.4541 139.563C24.7614 139.588 25.0604 139.676 25.3325 139.821L26.153 140.21L27.8783 141.026C30.2453 142.162 32.3861 143.209 33.9273 143.976L35.7683 144.897C35.9902 145.004 36.203 145.129 36.4048 145.27Z" fill="white"/>
<path d="M41.1858 144.222C41.1174 144.185 43.8579 138.768 47.3085 132.124C50.759 125.481 53.6205 120.116 53.6731 120.153C53.7257 120.189 51.001 125.602 47.5504 132.251C44.0999 138.899 41.2489 144.254 41.1858 144.222Z" fill="white"/>
<path d="M95.521 71.8609C96.7233 62.1802 89.8503 53.3578 80.1696 52.1554C70.489 50.9531 61.6665 57.8261 60.4642 67.5068C59.2618 77.1874 66.1348 86.0099 75.8155 87.2122C85.4962 88.4146 94.3186 81.5416 95.521 71.8609Z" fill="white"/>
<path d="M95.6531 69.6731C95.6531 69.6731 95.6531 69.5784 95.6531 69.3891C95.6531 69.1997 95.6531 68.9104 95.6215 68.5475L95.5952 67.9268C95.5952 67.7006 95.5321 67.4534 95.4953 67.1851C95.4584 66.9169 95.4111 66.6276 95.369 66.3225C95.3269 66.0174 95.2217 65.6965 95.1481 65.3546C94.75 63.6865 94.0971 62.0898 93.2124 60.6206C92.0583 58.6625 90.5344 56.9475 88.7256 55.571L87.9629 54.9977C87.6947 54.8189 87.4106 54.6558 87.1319 54.4717C86.8531 54.2876 86.5743 54.1088 86.2692 53.9457L85.3487 53.4986L84.8806 53.2777L84.3861 53.0988L83.392 52.7306C83.0501 52.6149 82.6977 52.5413 82.34 52.4466C81.9938 52.3463 81.6427 52.2638 81.288 52.1994C80.5462 52.0607 79.7958 51.9728 79.042 51.9364C78.658 51.9364 78.274 51.8838 77.8848 51.889L76.7118 51.9469C76.5119 51.9469 76.312 51.9469 76.1174 51.9837L75.523 52.0731C75.1285 52.1363 74.7288 52.1836 74.329 52.2678C73.5257 52.4449 72.7349 52.6751 71.962 52.9568C71.166 53.2404 70.3908 53.5797 69.6424 53.972C69.2689 54.1719 68.906 54.4086 68.5325 54.6295C68.3537 54.7452 68.159 54.8452 68.0065 54.9767L67.4805 55.3659C66.7729 55.8919 66.1 56.4629 65.4659 57.0754L64.5612 58.0695L64.335 58.322L64.1299 58.5903L63.7249 59.1163L63.3146 59.6423L62.9569 60.2261L62.5992 60.81L62.4204 61.1098L62.2678 61.4202C62.068 61.8357 61.8628 62.2512 61.6629 62.672C61.4631 63.0928 61.3421 63.5452 61.179 63.987C59.9586 67.6255 59.9586 71.5629 61.179 75.2014C61.3421 75.6432 61.4999 76.0798 61.6629 76.5164L62.2626 77.7735L62.4151 78.0838L62.594 78.3784L62.9516 78.9675L63.3146 79.5514L63.7196 80.0774L64.1299 80.6034L64.335 80.8769L64.5612 81.1241L65.4659 82.1183C66.0986 82.7323 66.7717 83.3034 67.4805 83.8278L68.0065 84.2223C68.1801 84.3538 68.3747 84.4537 68.5325 84.5694C68.906 84.7851 69.2636 85.0218 69.6424 85.2269C70.3908 85.6193 71.166 85.9585 71.962 86.2421C72.7349 86.5239 73.5257 86.7541 74.329 86.9312C74.7288 87.0153 75.1285 87.0574 75.523 87.1258L76.1174 87.2152C76.3173 87.2415 76.5119 87.2152 76.7118 87.252L77.8848 87.3099C78.274 87.3099 78.6633 87.2783 79.042 87.2625C79.7958 87.2261 80.5462 87.1382 81.288 86.9995C81.6428 86.9357 81.9939 86.8532 82.34 86.7523C82.6924 86.6524 83.0448 86.5787 83.392 86.4683L84.3861 86.1001L84.8806 85.9212L85.3487 85.6951L86.2692 85.2532C86.5743 85.1112 86.8478 84.9113 87.1319 84.7272C87.4159 84.5431 87.6947 84.3906 87.9629 84.2012L88.7309 83.6279C90.5369 82.25 92.0588 80.5352 93.2124 78.5783C94.0962 77.1087 94.7491 75.5121 95.1481 73.8443C95.2383 73.5257 95.312 73.2026 95.369 72.8764C95.4111 72.5661 95.4584 72.2768 95.4953 72.0085C95.5321 71.7403 95.5742 71.4825 95.5952 71.2669C95.6162 71.0512 95.5952 70.8356 95.6215 70.6515C95.6215 70.2833 95.6478 70.0045 95.6531 69.8099C95.6583 69.6152 95.6531 69.5206 95.6531 69.5206C95.6531 69.5206 95.6531 69.6205 95.6531 69.8099C95.6531 69.9992 95.6268 70.2833 95.6005 70.6462C95.6005 70.8303 95.6005 71.0354 95.5636 71.2669C95.5268 71.4983 95.4953 71.735 95.4532 72.0033C95.4111 72.2715 95.3638 72.5293 95.3164 72.8607C95.2588 73.1859 95.1815 73.5073 95.085 73.8232C94.6752 75.4751 94.0172 77.0553 93.1335 78.5099C91.9836 80.4967 90.4536 82.2375 88.631 83.6331L87.8735 84.2012C87.6053 84.3748 87.3212 84.5379 87.0477 84.7272C86.7742 84.9166 86.4902 85.0849 86.1851 85.2269L85.2751 85.6635L84.8122 85.8844L84.323 86.0633L83.3341 86.4209C82.9975 86.5314 82.6451 86.605 82.2821 86.6997C81.9359 86.7986 81.5848 86.8794 81.2301 86.9417C80.4949 87.0763 79.7517 87.1624 79.0052 87.1994C78.6264 87.1994 78.2477 87.2468 77.8585 87.2415L76.696 87.1784C76.5014 87.1784 76.3068 87.1784 76.1122 87.1416L75.523 87.0521C75.1338 86.989 74.734 86.9417 74.3448 86.8628C73.5482 86.6863 72.7644 86.4561 71.9988 86.1737C71.2145 85.8904 70.4501 85.5547 69.7107 85.1691C69.3373 84.9639 68.9849 84.7325 68.6167 84.5116C68.4378 84.3958 68.2432 84.3012 68.0907 84.1697L67.5647 83.7804C66.8628 83.2613 66.1968 82.6955 65.5711 82.0867L64.698 81.1083L64.4718 80.8611L64.2719 80.5929L63.8669 80.0669L63.4619 79.5409L63.1094 78.9623L62.757 78.3784L62.5782 78.0891L62.4309 77.7788L61.8313 76.5427L61.3579 75.2382C60.1515 71.6442 60.1515 67.7546 61.3579 64.1606L61.8365 62.8561C62.0364 62.4459 62.231 62.0303 62.4309 61.62L62.5834 61.315L62.757 61.0204L63.1094 60.4418L63.4671 59.8632L63.8669 59.3372L64.2719 58.8112L64.4718 58.5429L64.698 58.2957L65.5922 57.3121C66.2174 56.7049 66.8816 56.1391 67.5804 55.6184L68.1064 55.2344C68.2748 55.1029 68.4694 55.003 68.6324 54.8872C69.0006 54.6716 69.3531 54.4349 69.7265 54.235C70.4659 53.8493 71.2303 53.5137 72.0146 53.2303C72.7802 52.9479 73.5639 52.7177 74.3606 52.5413C74.7498 52.4624 75.1496 52.415 75.5388 52.3519L76.1279 52.2625C76.3226 52.2362 76.5172 52.2362 76.7118 52.2204L77.8743 52.1626C78.2635 52.1626 78.6422 52.1941 79.0209 52.2046C79.7674 52.2419 80.5107 52.328 81.2459 52.4624C81.6011 52.5222 81.9523 52.603 82.2979 52.7043C82.6451 52.799 82.9975 52.8727 83.3499 52.9831L84.3388 53.3408L84.8227 53.5196L85.2909 53.7406L86.2008 54.1771C86.5059 54.3139 86.7742 54.5138 87.0582 54.6716C87.3423 54.8294 87.621 55.003 87.8893 55.1976L88.6467 55.7604C90.4444 57.1227 91.9639 58.8172 93.123 60.7521C94.0058 62.2072 94.6637 63.7872 95.0745 65.4388C95.1698 65.755 95.247 66.0764 95.3059 66.4014C95.3532 66.7117 95.4006 66.9958 95.4427 67.264C95.4847 67.5323 95.5321 67.79 95.5531 68.0004C95.5742 68.2108 95.5794 68.4317 95.5899 68.6211C95.6162 68.984 95.632 69.2628 95.6425 69.4574C95.6531 69.6521 95.6531 69.6731 95.6531 69.6731Z" fill="#263238"/>
<path d="M102.37 80.7782C102.37 81.3462 102.201 81.9015 101.886 82.3738C101.57 82.8461 101.122 83.2142 100.597 83.4316C100.072 83.6489 99.4947 83.7058 98.9376 83.595C98.3805 83.4842 97.8688 83.2106 97.4672 82.809C97.0655 82.4073 96.792 81.8956 96.6812 81.3385C96.5703 80.7814 96.6272 80.2039 96.8446 79.6792C97.062 79.1544 97.4301 78.7058 97.9024 78.3903C98.3747 78.0747 98.9299 77.9063 99.4979 77.9063C99.8753 77.9056 100.249 77.9794 100.598 78.1235C100.947 78.2675 101.263 78.4791 101.53 78.7459C101.797 79.0127 102.009 79.3296 102.153 79.6783C102.297 80.0271 102.371 80.4009 102.37 80.7782Z" fill="white"/>
<path d="M102.37 80.7787C102.37 80.7787 102.37 80.7156 102.37 80.5946C102.371 80.4176 102.352 80.241 102.312 80.0686C102.163 79.4184 101.791 78.8412 101.26 78.438C100.906 78.1493 100.49 77.9476 100.045 77.8489C99.5173 77.7476 98.9725 77.7894 98.4667 77.9698C97.9082 78.1722 97.4241 78.5389 97.0781 79.0218C96.7026 79.5316 96.5 80.1481 96.5 80.7813C96.5 81.4145 96.7026 82.031 97.0781 82.5408C97.4241 83.0237 97.9082 83.3904 98.4667 83.5928C98.9714 83.7784 99.5177 83.8203 100.045 83.7137C100.595 83.6045 101.103 83.3391 101.507 82.9492C101.911 82.5594 102.194 82.0615 102.322 81.5151C102.362 81.3426 102.382 81.1661 102.38 80.9891C102.38 80.8681 102.38 80.805 102.38 80.805C102.38 80.805 102.38 81.0627 102.249 81.4993C102.108 82.0148 101.825 82.4801 101.431 82.8412C101.037 83.2024 100.549 83.4447 100.024 83.5402C99.5332 83.6263 99.0287 83.5809 98.5614 83.4087C98.046 83.2225 97.5987 82.8852 97.278 82.4408C96.9293 81.9667 96.7413 81.3935 96.7413 80.805C96.7413 80.2164 96.9293 79.6433 97.278 79.1691C97.6003 78.7264 98.0471 78.3895 98.5614 78.2013C99.0287 78.0291 99.5332 77.9837 100.024 78.0698C100.55 78.1656 101.038 78.4087 101.432 78.7709C101.826 79.133 102.109 79.5994 102.249 80.1159C102.359 80.5209 102.349 80.7787 102.37 80.7787Z" fill="#263238"/>
<path d="M72.183 71.0686V73.4724H70.2894V71.0423L67.7383 66.8027H69.7318L71.3098 69.4643L72.8878 66.8027H74.7236L72.183 71.0686Z" fill="#263238"/>
<path d="M80.5619 72.0101V73.4724H75.2178V66.8027H80.4778V68.2703H77.1061V69.3959H80.078V70.8109H77.1061V72.0364L80.5619 72.0101Z" fill="#263238"/>
<path d="M81.1406 72.8677L81.7613 71.4738C82.4232 71.892 83.1876 72.1195 83.9705 72.1313C84.7542 72.1313 85.0593 71.9103 85.0593 71.6053C85.0593 70.5533 81.2563 71.316 81.2563 68.8332C81.2563 67.634 82.2347 66.6609 84.223 66.6609C85.0677 66.6467 85.9022 66.8476 86.6478 67.2447L86.064 68.6491C85.4995 68.324 84.8635 68.1433 84.2125 68.1231C83.4182 68.1231 83.1289 68.3914 83.1289 68.7228C83.1289 69.7748 86.9266 68.9805 86.9266 71.4475C86.9266 72.6152 85.9483 73.6093 83.96 73.6093C82.9691 73.6327 81.9918 73.3756 81.1406 72.8677Z" fill="#263238"/>
<path d="M193.546 99.5897C203.937 98.2677 211.29 88.7718 209.968 78.3801C208.646 67.9884 199.15 60.6359 188.758 61.9579C178.367 63.2799 171.014 72.7757 172.336 83.1675C173.658 93.5592 183.154 100.912 193.546 99.5897Z" fill="white"/>
<path d="M172.18 80.7888C172.18 80.7888 172.18 80.6836 172.18 80.4785C172.18 80.2733 172.18 79.9525 172.217 79.579L172.244 78.911C172.244 78.669 172.312 78.385 172.354 78.1167C172.396 77.8485 172.438 77.5171 172.491 77.1857C172.548 76.8306 172.627 76.4792 172.728 76.1337C173.157 74.3456 173.858 72.6338 174.805 71.0578C176.045 68.957 177.679 67.1156 179.618 65.6348L180.439 65.0193C180.728 64.83 181.033 64.6564 181.333 64.4933C181.633 64.3303 181.933 64.1041 182.264 63.9673L183.248 63.4939L183.774 63.252L184.3 63.0574L185.352 62.6629C185.714 62.5419 186.098 62.463 186.472 62.3578C186.851 62.2491 187.235 62.1613 187.624 62.0948C188.42 61.9465 189.224 61.8516 190.033 61.8107C190.448 61.8107 190.859 61.7529 191.28 61.7582L192.542 61.8213C192.752 61.8213 192.963 61.8213 193.178 61.8633L193.815 61.958C194.236 62.0264 194.667 62.079 195.098 62.1632C195.96 62.3578 196.808 62.6055 197.639 62.9048C198.493 63.2104 199.324 63.576 200.127 63.9989C200.532 64.2146 200.921 64.467 201.316 64.7037C201.515 64.83 201.721 64.9352 201.91 65.0772L202.468 65.498C203.231 66.0602 203.955 66.6735 204.635 67.3337L205.608 68.3857L205.85 68.654L206.071 68.9433L206.507 69.5272L206.944 70.111L207.333 70.7422L207.717 71.3734L207.906 71.689L208.069 72.0204C208.285 72.4675 208.501 72.9199 208.722 73.367C208.943 73.8141 209.064 74.3085 209.248 74.7819C210.566 78.687 210.566 82.9169 209.248 86.822C209.074 87.2954 208.906 87.7688 208.722 88.237L208.075 89.5835L207.912 89.9149L207.717 90.2305L207.333 90.867L206.949 91.4929L206.507 92.0768L206.071 92.6659L205.85 92.9552L205.608 93.2235L204.635 94.2755C203.954 94.9329 203.232 95.5461 202.473 96.1112L201.91 96.532C201.721 96.6688 201.515 96.7792 201.321 96.9002C200.921 97.1369 200.532 97.3946 200.132 97.6103C199.326 98.0285 198.493 98.3922 197.639 98.6991C196.808 99.0039 195.958 99.2517 195.093 99.4408C194.667 99.5302 194.236 99.5775 193.81 99.6459L193.178 99.7459C192.963 99.7722 192.752 99.7722 192.537 99.7827L191.28 99.8458C190.859 99.8458 190.443 99.809 190.033 99.7985C189.224 99.7562 188.419 99.6595 187.624 99.5092C187.235 99.4458 186.85 99.358 186.472 99.2462C186.093 99.141 185.714 99.0621 185.352 98.9411L184.3 98.5466L183.774 98.3572L183.248 98.1153L182.259 97.6366C181.932 97.4841 181.638 97.2737 181.333 97.1106C181.028 96.9475 180.728 96.7529 180.439 96.5583L179.618 95.9429C177.677 94.4636 176.04 92.6219 174.8 90.5198C173.854 88.9435 173.155 87.2317 172.728 85.4439C172.627 85.0986 172.548 84.7472 172.491 84.3919C172.438 84.0605 172.396 83.7502 172.354 83.4662C172.312 83.1821 172.265 82.9402 172.244 82.6666C172.223 82.3931 172.244 82.2038 172.217 82.0039C172.217 81.6094 172.191 81.3096 172.18 81.0992C172.17 80.8888 172.18 80.7941 172.18 80.7941C172.18 80.7941 172.18 80.8993 172.207 81.0992C172.233 81.299 172.244 81.6252 172.265 81.9986C172.265 82.1985 172.291 82.4194 172.307 82.6614C172.322 82.9033 172.38 83.1874 172.422 83.4556C172.464 83.7239 172.517 84.05 172.57 84.3761C172.622 84.7023 172.733 85.0494 172.817 85.4281C173.262 87.2021 173.971 88.8991 174.921 90.462C176.165 92.5404 177.797 94.3601 179.729 95.8219L180.544 96.4268C180.828 96.6162 181.133 96.7897 181.433 96.9528C181.731 97.1435 182.038 97.3191 182.353 97.4788L183.332 97.9469L183.858 98.1836L184.384 98.3783L185.436 98.7622C185.799 98.8832 186.177 98.9621 186.551 99.0621C186.926 99.1702 187.307 99.2563 187.692 99.3198C188.479 99.4666 189.275 99.5598 190.075 99.5986C190.485 99.5986 190.896 99.6512 191.306 99.6459L192.558 99.5775C192.763 99.5775 192.978 99.5775 193.184 99.5407L193.815 99.4408C194.236 99.3724 194.662 99.3251 195.082 99.2356C195.938 99.0459 196.779 98.7999 197.602 98.4992C198.445 98.195 199.266 97.8329 200.058 97.4157C200.458 97.2 200.842 96.9475 201.237 96.7161C201.426 96.5899 201.636 96.4847 201.815 96.3479L202.373 95.9324C203.125 95.3725 203.84 94.7645 204.514 94.1124L205.471 93.0604L205.713 92.7974L205.929 92.5081L206.36 91.9295L206.797 91.3509L207.175 90.7302L207.554 90.1043L207.743 89.7939L207.906 89.4626C208.117 89.0207 208.332 88.5789 208.543 88.1318C208.753 87.6847 208.885 87.2008 209.069 86.7379C209.686 84.8124 210.012 82.8055 210.037 80.7836C210.013 78.7629 209.685 76.7573 209.064 74.8345L208.538 73.4406C208.322 72.9935 208.112 72.5517 207.896 72.1098L207.738 71.7785L207.549 71.4681L207.165 70.8422L206.786 70.2215L206.355 69.6429L205.923 69.0643L205.708 68.7802L205.466 68.512L204.508 67.46C203.835 66.8095 203.12 66.2034 202.368 65.6453L201.81 65.2297C201.626 65.0877 201.421 64.9825 201.231 64.8615C200.837 64.6248 200.453 64.3776 200.053 64.1567C198.48 63.3396 196.807 62.7296 195.077 62.342C194.656 62.2526 194.23 62.2053 193.81 62.1316L193.184 62.0369C192.973 62.0106 192.763 62.0106 192.552 61.9948L191.301 61.9317C190.89 61.9317 190.48 61.9633 190.075 61.9791C189.273 62.015 188.475 62.1081 187.687 62.2578C187.301 62.3169 186.919 62.4031 186.546 62.5156C186.172 62.6155 185.793 62.6944 185.43 62.8102L184.378 63.1994L183.852 63.3887L183.326 63.6254L182.348 64.0936C182.022 64.2461 181.733 64.4565 181.428 64.6196C181.122 64.7826 180.828 64.972 180.539 65.1456L179.723 65.7557C177.792 67.2179 176.16 69.0375 174.916 71.1157C173.967 72.6773 173.258 74.3723 172.812 76.1442C172.728 76.5124 172.607 76.8491 172.564 77.1962C172.522 77.5434 172.465 77.8327 172.417 78.122C172.37 78.4113 172.328 78.648 172.301 78.911C172.275 79.174 172.27 79.3791 172.259 79.5738L172.202 80.4732C172.196 80.6836 172.18 80.7888 172.18 80.7888Z" fill="#263238"/>
<path d="M164.97 92.7074C164.969 93.3185 165.149 93.9162 165.488 94.4247C165.827 94.9333 166.309 95.3299 166.873 95.5642C167.438 95.7985 168.059 95.8601 168.658 95.7412C169.258 95.6222 169.808 95.328 170.241 94.8959C170.673 94.4638 170.967 93.9131 171.086 93.3137C171.205 92.7143 171.143 92.093 170.909 91.5286C170.675 90.9642 170.278 90.482 169.769 90.1432C169.261 89.8043 168.663 89.624 168.052 89.625C167.235 89.6264 166.452 89.9516 165.874 90.5293C165.296 91.1071 164.971 91.8903 164.97 92.7074Z" fill="white"/>
<path d="M164.97 92.7075C164.962 92.6429 164.962 92.5775 164.97 92.5129C164.968 92.3217 164.989 92.1309 165.033 91.9448C165.189 91.2489 165.583 90.6294 166.148 90.1932C166.537 89.8885 166.993 89.6811 167.479 89.5883C168.002 89.4826 168.544 89.5104 169.055 89.6693C169.565 89.8281 170.027 90.1129 170.398 90.4973C170.769 90.8818 171.037 91.3535 171.178 91.8689C171.319 92.3844 171.328 92.927 171.204 93.4467C171.08 93.9665 170.827 94.4466 170.468 94.8428C170.11 95.2391 169.657 95.5386 169.152 95.7139C168.648 95.8892 168.107 95.9345 167.58 95.8458C167.053 95.757 166.557 95.537 166.137 95.206C165.572 94.7708 165.177 94.1509 165.022 93.4544C164.978 93.2701 164.957 93.0811 164.959 92.8916C164.951 92.8252 164.951 92.7581 164.959 92.6917C164.985 92.6917 164.959 92.9653 165.101 93.4334C165.282 94.0923 165.679 94.6717 166.227 95.0798C166.627 95.378 167.096 95.5717 167.59 95.6433C168.084 95.7149 168.588 95.6623 169.057 95.4901C169.612 95.2867 170.092 94.92 170.435 94.4381C170.811 93.9294 171.013 93.3137 171.013 92.6812C171.013 92.0488 170.811 91.433 170.435 90.9244C170.092 90.4425 169.612 90.0757 169.057 89.8724C168.552 89.6884 168.008 89.6412 167.479 89.7356C167.023 89.8114 166.591 89.9914 166.216 90.2616C165.668 90.6697 165.272 91.2491 165.091 91.908C164.985 92.434 164.996 92.7075 164.97 92.7075Z" fill="#263238"/>
<path d="M190.27 76.5117V84.528H188.402L184.862 80.2568V84.528H182.643V76.5117H184.51L188.05 80.7828V76.5117H190.27Z" fill="#263238"/>
<path d="M191.464 80.5208C191.464 78.117 193.352 76.3496 195.919 76.3496C198.486 76.3496 200.374 78.117 200.374 80.5208C200.374 82.9246 198.486 84.692 195.919 84.692C193.352 84.692 191.464 82.9246 191.464 80.5208ZM198.086 80.5208C198.062 80.0984 197.914 79.6925 197.661 79.3531C197.409 79.0137 197.062 78.7557 196.665 78.6109C196.267 78.466 195.836 78.4407 195.424 78.538C195.012 78.6354 194.638 78.8511 194.348 79.1586C194.057 79.4661 193.863 79.852 193.789 80.2685C193.715 80.6851 193.765 81.1142 193.932 81.5029C194.099 81.8916 194.376 82.2229 194.729 82.4559C195.082 82.6889 195.496 82.8134 195.919 82.8142C196.216 82.8178 196.509 82.7599 196.782 82.6443C197.055 82.5286 197.301 82.3577 197.505 82.1422C197.709 81.9267 197.865 81.6714 197.965 81.3924C198.065 81.1133 198.107 80.8165 198.086 80.5208Z" fill="#263238"/>
<path d="M163.34 54.0311C171.752 50.7207 175.883 41.2043 172.567 32.7756C169.25 24.3468 159.741 20.1976 151.329 23.508C142.916 26.8184 138.785 36.3348 142.102 44.7635C145.419 53.1923 154.927 57.3415 163.34 54.0311Z" fill="white"/>
<path d="M150.804 53.7897L151.051 53.8896L151.777 54.1737L152.303 54.3841C152.503 54.4472 152.729 54.4998 152.971 54.5682L153.755 54.7786C154.055 54.8529 154.359 54.9109 154.665 54.9521C156.228 55.227 157.825 55.2607 159.399 55.0521C161.493 54.8013 163.518 54.1476 165.364 53.1269L166.137 52.6903C166.384 52.5273 166.631 52.3432 166.878 52.1643C167.126 51.9855 167.404 51.8224 167.625 51.6383L168.346 51.0177L169.009 50.3917L169.046 50.3496C169.272 50.1182 169.498 49.8762 169.724 49.6395C169.95 49.4028 170.14 49.1135 170.35 48.8558C170.568 48.5791 170.768 48.2892 170.95 47.9879C171.34 47.4089 171.692 46.8044 172.002 46.1785C172.154 45.8576 172.333 45.542 172.47 45.2106L172.996 43.8115L173.054 43.6589L173.196 43.1329C173.285 42.77 173.396 42.4123 173.475 42.0441C173.619 41.2936 173.716 40.5346 173.764 39.7718C173.816 38.9907 173.816 38.2069 173.764 37.4258C173.732 37.0313 173.664 36.6368 173.611 36.2423C173.58 36.0424 173.569 35.8426 173.522 35.6427L173.38 35.0536C173.25 34.4141 173.074 33.7848 172.854 33.1705C172.733 32.8654 172.607 32.5603 172.486 32.25L172.002 31.2821L171.844 31.0086L171.534 30.4826L171.218 29.9566L170.855 29.4306L170.487 28.9046L170.303 28.6416L170.092 28.3944L168.43 26.6376L168.309 26.5218C165.665 24.1374 162.315 22.682 158.768 22.377H158.615H156.18H155.859L155.538 22.4243L154.907 22.5085L154.276 22.5979L153.66 22.7452L153.05 22.8924L152.745 22.9661L151.74 23.308L150.814 23.6709C150.212 23.9245 149.627 24.218 149.063 24.5493L148.537 24.8544C148.363 24.9544 148.205 25.0806 148.042 25.1911C147.716 25.4278 147.385 25.6487 147.069 25.8906C145.868 26.8691 144.798 27.9989 143.887 29.2518C143.671 29.5569 143.482 29.883 143.282 30.1986L142.988 30.6667C142.96 30.7087 142.935 30.7527 142.914 30.7982C142.693 31.2506 142.472 31.6924 142.251 32.1343C142.104 32.4656 141.993 32.8075 141.867 33.1389C141.619 33.7939 141.417 34.4653 141.262 35.1482C141.178 35.4789 141.115 35.8144 141.073 36.1529C141.026 36.4843 140.957 36.8157 140.931 37.147C140.905 37.4784 140.889 37.8098 140.873 38.1359V39.0932C140.873 39.4141 140.899 39.7297 140.91 40.0453C140.92 40.3609 140.989 40.6607 141.02 40.9658C141.052 41.2709 141.099 41.5654 141.152 41.86L141.357 42.7226C141.86 44.7692 142.753 46.6997 143.987 48.4087C144.911 49.6992 146.027 50.8415 147.296 51.7961C147.532 51.9857 147.78 52.1613 148.037 52.3221L148.726 52.7535C148.942 52.8797 149.137 53.0112 149.321 53.1111L149.847 53.3636L150.551 53.7003L150.793 53.8107L150.562 53.6845L149.868 53.3268L149.342 53.0691C149.158 52.9639 148.963 52.8324 148.753 52.7009L148.069 52.2695C147.816 52.1067 147.572 51.9311 147.338 51.7435C146.098 50.7641 145.015 49.6024 144.124 48.2982C142.89 46.6027 141.997 44.6843 141.494 42.649C141.425 42.365 141.357 42.0809 141.294 41.7916C141.231 41.5023 141.21 41.2025 141.168 40.9027C141.116 40.5997 141.081 40.2942 141.062 39.9874C141.062 39.6824 141.036 39.3668 141.026 39.0512C141.015 38.7356 141.026 38.3884 141.026 38.1412V38.0938L141.089 37.1207C141.115 36.7894 141.183 36.4685 141.231 36.1371C141.276 35.8025 141.339 35.4706 141.42 35.143C141.583 34.4615 141.792 33.7919 142.046 33.1389C142.172 32.8128 142.283 32.4709 142.43 32.15C142.646 31.7082 142.867 31.2664 143.088 30.8193C143.088 30.7772 143.135 30.7351 143.161 30.693C143.256 30.5405 143.356 30.3879 143.45 30.2301C143.65 29.9198 143.84 29.5989 144.055 29.2939C144.499 28.6842 144.982 28.1043 145.502 27.5581C146.033 26.9933 146.602 26.466 147.206 25.9801C147.516 25.7381 147.848 25.5224 148.169 25.291C148.332 25.1805 148.484 25.049 148.658 24.9544L149.184 24.6545C149.886 24.2569 150.614 23.9055 151.361 23.6025L152.529 23.208L152.824 23.1081L153.124 23.0345L153.728 22.8924L154.339 22.7452L154.965 22.661L155.585 22.5716L155.901 22.5295H156.216H158.636H158.778C162.283 22.8304 165.593 24.2694 168.204 26.627L168.32 26.7375L169.966 28.4786L170.177 28.7205L170.355 28.9783L170.724 29.5043L171.081 30.0303L171.392 30.5563L171.702 31.0823L171.854 31.3505L171.981 31.6346C172.154 32.008 172.323 32.3815 172.507 32.7549C172.792 33.512 173.027 34.2869 173.212 35.0746L173.348 35.6585C173.396 35.8531 173.406 36.053 173.438 36.2476C173.49 36.6421 173.559 37.0313 173.59 37.4206C173.645 38.1928 173.645 38.968 173.59 39.7402C173.546 40.4941 173.453 41.2444 173.311 41.9862C173.233 42.3544 173.127 42.7069 173.038 43.0382L172.896 43.5642C172.885 43.6107 172.871 43.6564 172.854 43.701L172.328 45.0896C172.191 45.421 172.018 45.7314 171.87 46.047C171.559 46.669 171.208 47.2699 170.818 47.8459C170.635 48.1295 170.435 48.4018 170.219 48.6612C170.013 48.9242 169.819 49.1872 169.603 49.4397L168.93 50.1498L168.599 50.4969L168.567 50.5285L167.515 51.4279C167.284 51.6331 167.015 51.7909 166.773 51.9539C166.531 52.117 166.284 52.3116 166.037 52.4799L165.274 52.9165C163.459 53.9675 161.456 54.6554 159.378 54.9416C157.814 55.1588 156.227 55.1358 154.67 54.8732C154.366 54.8375 154.064 54.7848 153.765 54.7154L152.982 54.5103C152.74 54.4472 152.513 54.3998 152.314 54.3367L151.788 54.1368L151.051 53.8738L150.804 53.7897Z" fill="#263238"/>
<path d="M144.266 60.91C143.697 60.8067 143.176 60.521 142.783 60.0959C142.391 59.6709 142.147 59.1296 142.089 58.5537C142.031 57.9779 142.161 57.3987 142.461 56.9037C142.761 56.4088 143.214 56.0248 143.752 55.8099C144.289 55.5949 144.882 55.5606 145.44 55.7122C145.999 55.8637 146.493 56.1929 146.848 56.65C147.203 57.107 147.4 57.6672 147.409 58.2459C147.417 58.8246 147.237 59.3905 146.896 59.858C146.6 60.2622 146.197 60.5752 145.732 60.7612C145.267 60.9472 144.759 60.9987 144.266 60.91Z" fill="white"/>
<path d="M143.676 60.7261C143.676 60.7261 143.729 60.7629 143.829 60.805C143.98 60.8719 144.139 60.9196 144.302 60.947C144.908 61.0648 145.535 60.9661 146.075 60.6683C146.477 60.4477 146.818 60.1291 147.064 59.742C147.31 59.3549 147.455 58.9118 147.485 58.4538C147.529 57.903 147.402 57.3519 147.122 56.8758C146.826 56.3687 146.374 55.9704 145.834 55.7402C145.294 55.5099 144.694 55.4599 144.123 55.5976C143.614 55.7141 143.148 55.9742 142.782 56.3471C142.416 56.72 142.164 57.19 142.056 57.7016C141.967 58.1187 141.976 58.551 142.083 58.964C142.234 59.5608 142.589 60.0857 143.087 60.4473C143.219 60.5465 143.362 60.6295 143.513 60.6946C143.613 60.7419 143.671 60.7629 143.671 60.7524C143.671 60.7419 143.461 60.6472 143.145 60.3895C142.684 60.0188 142.362 59.5037 142.23 58.9272C142.135 58.5366 142.135 58.129 142.23 57.7384C142.334 57.2893 142.557 56.8767 142.877 56.5444C143.226 56.1736 143.679 55.9169 144.176 55.808C144.705 55.6912 145.256 55.7427 145.754 55.9553C146.254 56.1703 146.672 56.5388 146.948 57.0073C147.21 57.4443 147.333 57.9506 147.3 58.4591C147.273 58.8894 147.14 59.3064 146.914 59.6733C146.687 60.0402 146.374 60.3457 146.001 60.5631C145.488 60.8552 144.893 60.9699 144.308 60.8892C143.903 60.8103 143.687 60.7103 143.676 60.7261Z" fill="#263238"/>
<path d="M152.693 36.0092H155.17C155.17 35.728 155.226 35.4496 155.336 35.1905C155.445 34.9313 155.605 34.6968 155.807 34.5006C156.008 34.3045 156.247 34.1507 156.509 34.0485C156.771 33.9462 157.051 33.8975 157.332 33.9052C157.749 33.889 158.161 34.0035 158.51 34.2327C158.859 34.4618 159.127 34.7942 159.278 35.1834C159.409 35.5087 159.461 35.8603 159.43 36.2095C159.399 36.5587 159.286 36.8956 159.1 37.1927C158.679 37.887 157.758 38.5182 156.086 38.2447V43.794H158.537V40.5013C159.543 40.2064 160.425 39.589 161.047 38.7442C161.668 37.8994 161.995 36.8738 161.977 35.8251C161.977 32.201 158.726 31.3594 157.332 31.3594C156.27 31.3804 152.646 31.6329 152.693 36.0092Z" fill="#263238"/>
<path d="M158.568 44.9473H156.08V47.2722H158.568V44.9473Z" fill="#263238"/>
<path d="M66.8548 183.701C66.8548 183.701 62.3628 179.493 60.6322 178.362C58.9017 177.231 55.0303 175.7 53.5838 175.558C52.1373 175.416 45.3677 177.378 45.3677 177.378C45.3677 177.378 35.3737 176.494 33.6957 177.662C32.0178 178.83 32.1546 180.04 32.8594 180.929C33.5643 181.818 36.2626 181.533 39.2503 181.581C42.238 181.628 43.0322 181.907 43.0322 181.907L38.6927 186.53L49.9702 189.66L56.8082 189.402L59.2804 192.516L66.8548 183.701Z" fill="#FFBF9D"/>
<path d="M32.6123 173.26L32.8858 183.212L33.3645 184.448L38.2773 190.439L50.2596 189.645L40.7127 185.926L37.32 183.349L36.005 179.093C36.005 179.093 36.4048 172.529 32.6123 173.26Z" fill="#FFBF9D"/>
<path d="M33.443 184.68H30.5079C30.5079 184.68 26.6997 178.415 23.2176 180.545L24.0171 181.781C24.0171 181.781 22.4391 181.071 21.4502 182.392L31.055 190.808H31.4968L41.7275 190.15L33.443 184.68Z" fill="#FFBF9D"/>
<path d="M35.1844 186.583C34.91 186.609 34.6342 186.62 34.3586 186.614C33.6641 186.621 32.9772 186.759 32.3335 187.019L32.2388 187.067L32.1757 186.977C31.8759 186.557 31.5129 186.109 31.1237 185.641C30.3505 184.679 29.6456 183.811 29.0565 183.085C28.755 182.745 28.4823 182.381 28.2412 181.996C28.6006 182.282 28.9269 182.606 29.2143 182.964C29.7771 183.59 30.5398 184.468 31.3499 185.473C31.7286 185.946 32.0863 186.393 32.4019 186.841L32.2388 186.798C32.9167 186.529 33.6467 186.416 34.3744 186.467C34.6494 186.452 34.9246 186.492 35.1844 186.583Z" fill="#FF9A6C"/>
<path d="M55.9405 180.791C54.7814 181.185 53.6528 181.663 52.5635 182.222C51.5251 182.871 50.537 183.597 49.6074 184.394C49.8001 184.085 50.0397 183.809 50.3175 183.574C50.9498 182.961 51.6567 182.431 52.4215 181.996C53.1883 181.559 54.0064 181.22 54.8569 180.986C55.205 180.862 55.5711 180.796 55.9405 180.791Z" fill="#FF9A6C"/>
<path d="M46.3673 178.215C45.953 178.808 45.494 179.369 44.9944 179.893C44.565 180.478 44.0901 181.029 43.5742 181.539C43.8697 180.867 44.279 180.252 44.784 179.719C45.2216 179.131 45.7572 178.622 46.3673 178.215Z" fill="#FF9A6C"/>
<path d="M36.3623 187.971C36.2801 187.903 36.2044 187.827 36.1361 187.745L35.5154 187.056L34.5528 185.952L33.9532 185.263C33.7165 185.009 33.4985 184.738 33.301 184.453C32.8569 183.775 32.6177 182.985 32.6119 182.175C32.6119 181.328 32.5751 180.423 32.5593 179.471C32.5277 177.562 32.4909 175.463 32.4541 173.259V173.138H32.5646L32.8854 173.096C33.2389 173.054 33.5972 173.094 33.9328 173.213C34.2684 173.331 34.5723 173.525 34.8211 173.78C35.2667 174.278 35.5908 174.872 35.7679 175.516C36.0764 176.685 36.1971 177.896 36.1256 179.103V179.061C36.6148 180.671 37.0461 182.112 37.4143 183.322L37.3775 183.274L39.8444 185.205L40.5019 185.731C40.5808 185.787 40.6531 185.853 40.7176 185.925C40.7176 185.925 40.6281 185.883 40.4703 185.773L39.7865 185.284L37.267 183.422V183.39C36.8883 182.185 36.4359 180.76 35.9257 179.145V179.103C35.9843 177.925 35.8583 176.745 35.5522 175.605C35.3967 175 35.1012 174.44 34.6896 173.969C34.4682 173.744 34.1979 173.573 33.8996 173.469C33.6013 173.365 33.2831 173.331 32.9696 173.37L32.6803 173.407L32.7907 173.27C32.8223 175.474 32.8486 177.572 32.8696 179.482C32.8907 181.391 32.654 183.164 33.5166 184.368C33.6886 184.642 33.8784 184.904 34.0847 185.152L34.6686 185.857C35.0262 186.288 35.3366 186.667 35.5943 186.988L36.1729 187.708C36.2466 187.788 36.3102 187.876 36.3623 187.971Z" fill="#FF9A6C"/>
<path d="M31.5181 190.812C31.3313 190.83 31.1446 190.78 30.9921 190.67C30.5795 190.421 30.2011 190.118 29.8664 189.771C28.7719 188.636 27.766 187.42 26.8577 186.131C25.7741 184.627 24.8642 183.249 24.1961 182.233C23.8753 181.707 23.6228 181.308 23.4545 181.013C23.3522 180.87 23.2724 180.712 23.2178 180.545C23.3427 180.668 23.4522 180.806 23.5439 180.955L24.3592 182.123C25.0483 183.117 25.9898 184.485 27.0734 185.968C27.9762 187.251 28.9527 188.48 29.9979 189.65C30.3132 190.001 30.666 190.317 31.0499 190.592C31.1991 190.679 31.3558 190.753 31.5181 190.812Z" fill="#FF9A6C"/>
<path d="M48.997 184.389L43.7107 184.031L42.1327 179.703L41.8434 176.788C41.7816 176.099 41.464 175.457 40.9529 174.99C40.4418 174.523 39.7744 174.264 39.0819 174.264H39.0293L39.3239 181.401L40.4127 185.836L44.7101 188.371H49.9701L48.997 184.389Z" fill="#FFBF9D"/>
<path d="M48.997 184.389L43.7107 184.031L42.1327 179.703L41.8434 176.788C41.7816 176.099 41.464 175.457 40.9529 174.99C40.4418 174.523 39.7744 174.264 39.0819 174.264H39.0293L39.3239 181.401L40.4127 185.836L44.7101 188.371" fill="#FFBF9D"/>
<path d="M44.7098 188.372C44.602 188.331 44.4981 188.28 44.3995 188.22L43.5368 187.741L40.3808 185.921H40.344V185.884C40.0232 184.611 39.6497 183.107 39.2342 181.455V181.429C39.1395 179.283 39.0343 176.858 38.9238 174.291V174.154H39.0606C39.1079 174.154 39.1658 174.154 39.2184 174.154C39.8542 174.177 40.4649 174.408 40.9564 174.812C41.4479 175.216 41.7927 175.77 41.9378 176.39C41.9999 176.676 42.0403 176.966 42.0588 177.258L42.1377 178.099C42.1955 178.625 42.2429 179.193 42.2955 179.714V179.683C42.8741 181.297 43.3948 182.76 43.8735 184.027L43.7841 183.959L47.6502 184.264L48.7022 184.364C48.8246 184.37 48.9461 184.387 49.0651 184.417C48.9427 184.429 48.8193 184.429 48.6969 184.417L47.6449 184.369L43.7788 184.154H43.6578V184.096C43.1897 182.833 42.6532 181.376 42.0798 179.772V179.74C42.0272 179.214 41.9694 178.688 41.9115 178.126C41.8852 177.847 41.8536 177.568 41.8273 177.284C41.8083 177.005 41.7696 176.727 41.7116 176.453C41.5793 175.892 41.2662 175.389 40.8205 175.023C40.3747 174.657 39.821 174.448 39.2447 174.428H39.029L39.1605 174.286C39.2605 176.847 39.3604 179.278 39.4446 181.424C39.8443 183.081 40.202 184.58 40.4966 185.863L40.4492 185.8L43.5737 187.694L44.4153 188.22C44.5197 188.257 44.6187 188.309 44.7098 188.372Z" fill="#FF9A6C"/>
<path d="M162.229 100.161C157.7 82.8927 153.518 62.8152 128.265 64.6036C128.265 64.6036 112.706 67.5966 105.321 79.0792C100.971 85.833 97.2048 114.952 96.4579 137.949C96.4263 138.885 96.8156 145.413 96.7893 146.328L163.623 151.893H175.684C175.684 151.893 174.932 139.695 171.302 127.86C167.752 116.357 163.833 106.252 162.229 100.161Z" fill="#263238"/>
<path d="M124.909 71.1834L126.487 69.6738L143.556 76.5539C144.748 76.6204 145.871 77.131 146.704 77.985C147.538 78.8389 148.021 79.9742 148.059 81.1669L147.906 136.786C147.906 140.558 147.175 143.824 144.897 146.828L142.499 149.984C137.034 157.2 125.788 156.606 121.459 148.658C121.198 148.205 120.997 147.721 120.859 147.217C120.75 146.808 120.664 146.394 120.601 145.975C120.075 141.499 120.075 137.617 120.075 137.617C119.77 132.704 119.67 130.69 119.67 130.737C119.67 130.785 109.214 129.533 106.389 116.114C104.984 109.439 105.247 100.255 105.642 91.2188C106.178 78.7263 114.857 71.1677 124.909 71.1834Z" fill="#FFBF9D"/>
<path d="M129.301 100.156C129.32 100.608 129.515 101.035 129.844 101.345C130.173 101.656 130.61 101.825 131.063 101.818C131.284 101.825 131.505 101.787 131.712 101.708C131.919 101.628 132.107 101.507 132.267 101.353C132.426 101.199 132.553 101.015 132.64 100.811C132.727 100.607 132.772 100.388 132.772 100.166C132.753 99.7147 132.559 99.2882 132.231 98.977C131.904 98.6658 131.468 98.4944 131.016 98.4989C130.793 98.4918 130.572 98.5295 130.365 98.6095C130.157 98.6896 129.968 98.8104 129.808 98.9649C129.648 99.1194 129.521 99.3044 129.434 99.5089C129.347 99.7135 129.301 99.9335 129.301 100.156Z" fill="#263238"/>
<path d="M111.48 100.619C111.497 101.072 111.69 101.5 112.019 101.812C112.347 102.123 112.785 102.294 113.237 102.287C113.459 102.293 113.68 102.255 113.886 102.175C114.093 102.095 114.282 101.975 114.441 101.821C114.601 101.667 114.729 101.483 114.816 101.279C114.904 101.076 114.95 100.857 114.952 100.635C114.934 100.182 114.74 99.754 114.411 99.4424C114.081 99.1308 113.643 98.9604 113.19 98.9676C112.968 98.9606 112.748 98.9981 112.541 99.0779C112.334 99.1576 112.145 99.2781 111.986 99.4321C111.827 99.5861 111.7 99.7705 111.613 99.9744C111.526 100.178 111.481 100.398 111.48 100.619Z" fill="#263238"/>
<path d="M107.419 94.8066C107.645 95.0223 108.908 93.9808 110.775 93.8967C112.642 93.8125 114.057 94.6699 114.252 94.4227C114.347 94.3175 114.105 93.8967 113.489 93.5127C112.651 92.9949 111.674 92.747 110.691 92.8026C109.72 92.8459 108.789 93.1999 108.035 93.8125C107.482 94.2912 107.304 94.712 107.419 94.8066Z" fill="#263238"/>
<path d="M125.935 94.155C126.182 94.3444 127.339 93.1819 129.185 92.9031C131.032 92.6244 132.531 93.3397 132.694 93.082C132.778 92.9663 132.499 92.5928 131.842 92.2562C130.957 91.8273 129.962 91.6805 128.991 91.8354C128.028 91.9808 127.137 92.4284 126.445 93.1135C125.951 93.629 125.819 94.0866 125.935 94.155Z" fill="#263238"/>
<path d="M119.844 108.587C119.844 108.482 118.676 108.34 116.782 108.193C116.304 108.167 115.846 108.098 115.73 107.777C115.663 107.286 115.75 106.787 115.978 106.347C116.367 105.168 116.777 103.938 117.203 102.665C118.902 97.4046 120.107 93.0809 119.896 93.0125C119.686 92.9442 118.134 97.1627 116.435 102.428C116.025 103.727 115.636 104.963 115.268 106.147C115.115 106.699 114.836 107.33 115.115 108.03C115.192 108.194 115.305 108.339 115.446 108.453C115.588 108.567 115.753 108.647 115.93 108.687C116.198 108.745 116.472 108.77 116.746 108.761C118.665 108.745 119.838 108.698 119.844 108.587Z" fill="#263238"/>
<path d="M119.659 130.748C126.038 130.528 132.23 128.539 137.543 125.004C137.543 125.004 133.461 134.598 119.859 134.014L119.659 130.748Z" fill="#FF9A6C"/>
<path d="M125.677 112.385C125.404 112.071 125.071 111.816 124.696 111.636C124.322 111.455 123.915 111.352 123.5 111.333C122.327 111.264 121.501 111.412 120.87 112.338C120.747 112.566 120.671 112.817 120.649 113.076C120.626 113.335 120.657 113.595 120.738 113.842C120.875 114.058 120.775 114.063 120.985 114.215C121.748 114.75 122.61 115.127 123.521 115.325C124.425 115.53 125.467 115.325 125.935 114.584C126.12 114.234 126.194 113.837 126.148 113.444C126.102 113.052 125.938 112.682 125.677 112.385Z" fill="#FF9A6C"/>
<path d="M125.488 85.5963C125.73 86.0697 127.334 85.5963 129.312 85.5437C131.289 85.4911 132.936 85.8593 133.125 85.3701C133.209 85.1386 132.862 84.7073 132.157 84.3181C131.248 83.8446 130.231 83.6145 129.206 83.6501C128.194 83.6707 127.205 83.9593 126.34 84.4864C125.677 84.9177 125.382 85.3648 125.488 85.5963Z" fill="#263238"/>
<path d="M107.688 91.43C108.035 91.835 109.303 91.33 110.844 91.2354C112.385 91.1407 113.711 91.3721 114 90.9145C114.121 90.6936 113.895 90.278 113.301 89.9046C112.512 89.4529 111.602 89.2564 110.697 89.3418C109.789 89.4008 108.923 89.743 108.219 90.3201C107.688 90.783 107.53 91.2301 107.688 91.43Z" fill="#263238"/>
<path d="M147.716 104.905C147.716 104.905 140.531 106.641 130.358 84.6804C126.886 77.206 120.148 69.6737 120.148 69.6737L126.46 68.7637C126.46 68.7637 145.318 74.0763 145.633 74.313C145.949 74.5497 150.393 84.065 150.393 84.065L147.716 104.905Z" fill="#263238"/>
<path d="M145.36 104.027C145.313 103.017 146.359 100.582 147.343 100.376C149.973 99.8504 154.781 99.8031 155.165 106.552C155.691 115.772 146.323 114.394 146.291 114.131C146.259 113.868 145.528 107.504 145.36 104.027Z" fill="#FFBF9D"/>
<path d="M148.911 110.461C148.947 110.429 149.074 110.566 149.352 110.677C149.745 110.817 150.177 110.8 150.557 110.629C151.509 110.219 152.24 108.625 152.193 106.947C152.169 106.155 151.972 105.377 151.614 104.67C151.511 104.387 151.341 104.133 151.119 103.931C150.896 103.728 150.627 103.583 150.336 103.507C150.148 103.468 149.953 103.497 149.784 103.587C149.615 103.677 149.483 103.824 149.41 104.002C149.3 104.265 149.373 104.449 149.321 104.464C149.268 104.48 149.116 104.322 149.168 103.938C149.206 103.706 149.323 103.495 149.5 103.339C149.619 103.236 149.758 103.158 149.908 103.109C150.058 103.06 150.216 103.042 150.373 103.055C150.756 103.107 151.119 103.257 151.428 103.49C151.736 103.723 151.98 104.031 152.135 104.386C152.57 105.163 152.811 106.035 152.835 106.926C152.882 108.788 152.03 110.582 150.731 111.039C150.487 111.125 150.228 111.156 149.971 111.129C149.714 111.101 149.467 111.017 149.247 110.882C148.937 110.703 148.858 110.498 148.911 110.461Z" fill="#FF9A6C"/>
<path d="M126.866 112.759C126.84 112.995 125.262 112.958 123.394 113.321C121.527 113.684 120.065 114.268 119.949 114.063C119.833 113.858 121.217 112.89 123.242 112.517C125.267 112.143 126.908 112.564 126.866 112.759Z" fill="#263238"/>
<path d="M198.928 184.217C198.928 184.217 206.649 177.605 208.89 177.426C211.131 177.247 217.012 178.346 217.012 178.346C217.012 178.346 220.73 178.378 222.577 178.147C224.504 177.84 226.474 177.937 228.363 178.431C228.92 178.599 229.62 179.982 227.979 180.929C227.284 181.329 220.531 181.786 220.531 181.786L237.426 186.61L235.232 188.419C234.936 188.665 234.565 188.804 234.18 188.814L209.874 189.676L208.759 192.396L198.928 184.217Z" fill="#FFBF9D"/>
<path d="M217.369 184.221H225.259C225.259 184.221 228.026 180.539 229.025 179.019C229.904 177.678 230.956 177.283 231.876 177.599C232.116 177.686 232.316 177.858 232.439 178.083C232.527 178.244 232.573 178.425 232.573 178.609C232.573 178.793 232.527 178.973 232.439 179.135L228.967 185.61L230.787 185C230.787 185 234.427 181.433 235.137 180.608C235.848 179.782 238.435 176.31 240.729 178.84L237.573 182.375L240.729 180.134C240.729 180.134 243.264 177.957 244.616 180.55L235.148 188.524" fill="#FFBF9D"/>
<path d="M209.153 180.944C209.254 180.895 209.36 180.858 209.469 180.834C209.775 180.731 210.09 180.658 210.41 180.618C211.603 180.458 212.816 180.584 213.95 180.986C214.743 181.26 215.506 181.612 216.228 182.038C216.617 182.269 217.012 182.522 217.412 182.801L218.011 183.227C218.201 183.364 218.437 183.542 218.59 183.627C220.589 183.779 222.877 183.916 225.27 184.084L225.154 184.132C225.896 183.253 226.622 182.296 227.327 181.302C227.605 180.912 227.853 180.518 228.121 180.129C228.389 179.739 228.615 179.334 228.899 178.966C229.17 178.584 229.481 178.231 229.825 177.914C230.001 177.761 230.193 177.629 230.398 177.52C230.618 177.393 230.871 177.336 231.124 177.357H231.077C231.294 177.32 231.517 177.328 231.731 177.379C231.945 177.431 232.147 177.525 232.324 177.656C232.481 177.806 232.6 177.991 232.673 178.196C232.745 178.401 232.768 178.619 232.739 178.835V178.861C231.235 181.554 229.925 183.9 228.915 185.699C228.805 186.032 228.623 186.336 228.382 186.59C228.141 186.845 227.847 187.043 227.521 187.172C227.05 187.368 226.548 187.475 226.038 187.487C225.724 187.505 225.41 187.505 225.096 187.487C224.987 187.491 224.877 187.48 224.77 187.456H225.096C225.307 187.456 225.622 187.456 226.033 187.419C226.528 187.389 227.013 187.274 227.469 187.077C227.769 186.95 228.038 186.759 228.259 186.519C228.479 186.278 228.646 185.993 228.747 185.683L232.492 178.777V178.824C232.514 178.651 232.496 178.474 232.438 178.309C232.381 178.144 232.286 177.994 232.161 177.872C231.854 177.66 231.476 177.577 231.109 177.641H231.066C230.881 177.638 230.699 177.687 230.54 177.783C230.349 177.879 230.172 178.001 230.014 178.146C229.682 178.441 229.384 178.773 229.126 179.135C228.6 179.871 228.126 180.713 227.548 181.47C226.837 182.475 226.106 183.427 225.354 184.316L225.312 184.368H225.244C222.835 184.189 220.594 184.053 218.532 183.869C218.297 183.744 218.074 183.596 217.869 183.427L217.275 183.001C216.886 182.722 216.496 182.475 216.118 182.238C215.411 181.814 214.664 181.461 213.887 181.186C212.779 180.775 211.591 180.624 210.416 180.744C210.1 180.777 209.787 180.833 209.479 180.912C209.372 180.93 209.263 180.941 209.153 180.944Z" fill="#FF9A6C"/>
<path d="M240.745 178.84C240.664 178.997 240.561 179.143 240.44 179.271C240.224 179.539 239.914 179.923 239.519 180.386C238.741 181.323 237.647 182.601 236.421 184C235.195 185.399 234.143 186.725 233.233 187.556C232.884 187.893 232.504 188.195 232.097 188.46C231.953 188.567 231.788 188.642 231.613 188.681C231.748 188.568 231.89 188.465 232.039 188.371C232.412 188.077 232.764 187.757 233.091 187.414C233.949 186.562 234.948 185.21 236.2 183.826C237.452 182.443 238.546 181.165 239.356 180.26L240.334 179.208C240.454 179.068 240.592 178.944 240.745 178.84Z" fill="#FF9A6C"/>
<path d="M236.416 179.209C236.137 179.617 235.816 179.994 235.459 180.335C234.843 181.008 233.975 181.913 233.008 182.923C232.213 183.743 231.472 184.501 230.904 185.074C230.277 185.327 229.622 185.504 228.952 185.6C229.121 185.515 229.297 185.447 229.478 185.395L230.856 184.869L230.814 184.895C231.382 184.285 232.108 183.522 232.918 182.707C233.886 181.707 234.775 180.813 235.427 180.177C235.729 179.827 236.06 179.503 236.416 179.209Z" fill="#FF9A6C"/>
<path d="M172.749 144.967C172.749 144.967 184.089 147.891 185.199 163.303C185.836 172.087 181.159 200.297 181.159 200.297L197.907 183.097L212.835 193.48C212.835 193.48 192.516 218.291 187.845 222.042C183.174 225.792 175.684 231.778 173.264 231.289C170.845 230.799 170.834 219.606 170.834 219.606V157.801L172.749 144.967Z" fill="#5A7EFF"/>
<path d="M91.2186 146.854C91.2186 146.854 81.13 150.173 81.5297 169.898C81.9295 189.623 81.6191 196.245 81.6191 196.245L66.4966 180.239L53.9463 194.094C53.9463 194.094 68.001 214.976 77.8319 225.128C87.1001 234.685 95.3372 226.385 98.0146 219.662C100.182 214.218 101.928 193.515 101.928 193.515L91.2186 146.854Z" fill="#5A7EFF"/>
<g opacity="0.3">
<path d="M173.627 180.471C174.543 174.685 174.785 168.421 172.149 163.113C165.685 179.093 165.974 197.445 168.288 214.377L173.412 229.026C176.641 219.211 173.575 208.754 173.643 198.518C173.685 192.685 172.717 186.241 173.627 180.471Z" fill="black"/>
</g>
<path d="M89.1201 159.406C89.1201 159.406 95.8634 204.768 97.1679 208.739C98.4724 212.71 98.4724 224.419 98.4724 224.419C98.4724 224.419 91.3977 237.601 90.9611 246.758L176.21 246.937L170.671 209.291C170.495 206.915 170.453 204.53 170.545 202.148C170.903 195.515 171.413 181.298 173.317 172.556C175.526 162.393 172.549 145.004 172.549 145.004L147.085 138.729C141.057 147.392 126.045 147.507 120.091 138.729L91.3504 146.855L89.1201 159.406Z" fill="#5A7EFF"/>
<path d="M172.344 207.491C172.405 207.344 172.491 207.207 172.596 207.086C172.775 206.839 173.043 206.482 173.38 206.034C174.255 204.894 175.234 203.838 176.305 202.878C177.394 201.942 178.608 201.161 179.913 200.559C180.439 200.338 180.828 200.17 181.117 200.075C181.265 200.011 181.421 199.967 181.58 199.943C181.638 200.054 178.998 200.901 176.483 203.099C175.43 204.048 174.442 205.067 173.527 206.15C173.165 206.625 172.77 207.073 172.344 207.491Z" fill="#263238"/>
<path d="M93.4018 206.529C93.3492 206.529 93.1546 205.608 92.5076 204.225C91.6738 202.418 90.4558 200.815 88.9386 199.528C87.4214 198.241 85.6416 197.3 83.7234 196.771C82.2506 196.361 81.2933 196.319 81.3038 196.245C81.5256 196.218 81.75 196.218 81.9718 196.245C82.5788 196.298 83.1804 196.4 83.7707 196.55C85.7406 197.036 87.5715 197.97 89.1201 199.28C90.6609 200.598 91.8806 202.249 92.6864 204.109C92.9291 204.668 93.1279 205.245 93.2808 205.834C93.3517 206.059 93.3924 206.293 93.4018 206.529Z" fill="#263238"/>
<path d="M93.949 181.949C93.8084 181.901 93.6768 181.83 93.5598 181.738C93.3231 181.591 92.9864 181.359 92.5814 181.054C91.5338 180.26 90.5538 179.381 89.6516 178.424C88.7548 177.469 87.9135 176.462 87.132 175.41C86.783 174.991 86.4765 174.538 86.2168 174.059C86.5962 174.443 86.9478 174.855 87.2688 175.289C87.9105 176.063 88.7942 177.125 89.8409 178.235C90.7368 179.18 91.6888 180.071 92.6919 180.902C93.13 181.227 93.5497 181.577 93.949 181.949Z" fill="#263238"/>
<path d="M153.455 206.502C153.455 206.502 153.455 206.539 153.386 206.607L153.166 206.896C152.955 207.144 152.676 207.533 152.266 207.985C151.127 209.287 149.897 210.505 148.584 211.63C146.628 213.309 144.544 214.832 142.351 216.186C139.674 217.832 136.908 219.329 134.067 220.672C131.047 222.108 128.133 223.387 125.493 224.575C122.852 225.764 120.49 226.853 118.539 227.837C116.588 228.82 115.031 229.662 113.968 230.272C113.442 230.566 113.032 230.798 112.753 230.977L112.432 231.156C112.358 231.192 112.322 231.213 112.316 231.208C112.345 231.178 112.379 231.153 112.416 231.135L112.721 230.929C112.995 230.756 113.389 230.493 113.915 230.177C114.967 229.541 116.503 228.662 118.45 227.663C120.396 226.664 122.758 225.559 125.393 224.344C128.028 223.129 130.937 221.861 133.946 220.425C136.779 219.085 139.541 217.598 142.22 215.97C144.404 214.639 146.486 213.147 148.447 211.504C149.771 210.397 151.021 209.204 152.187 207.933C152.608 207.496 152.903 207.117 153.118 206.881L153.365 206.612L153.455 206.502Z" fill="#263238"/>
<path d="M91.1553 246.048V245.938C91.1553 245.848 91.1553 245.743 91.1553 245.606C91.1553 245.301 91.2026 244.875 91.2342 244.323C91.4369 242.723 91.7587 241.141 92.1968 239.589C93.8131 234.151 96.0141 228.904 98.7612 223.94V224.009C98.4193 219.075 97.9091 213.562 97.32 207.766C96.1944 196.815 95.0161 186.926 94.164 179.762C93.7327 176.195 93.3803 173.302 93.112 171.288C92.9963 170.299 92.9069 169.52 92.8385 168.979L92.7754 168.379C92.7684 168.311 92.7684 168.242 92.7754 168.174C92.7968 168.239 92.8109 168.306 92.8174 168.374C92.8385 168.521 92.87 168.721 92.9121 168.973C92.9858 169.499 93.0962 170.283 93.233 171.272C93.5012 173.287 93.88 176.174 94.3534 179.741C95.2633 186.894 96.4574 196.783 97.5988 207.734C98.1879 213.52 98.6929 219.054 99.0137 223.993V224.03V224.061C96.2646 229.005 94.0415 234.223 92.3809 239.631C91.9217 241.174 91.5702 242.747 91.3289 244.339C91.2815 244.865 91.2394 245.312 91.2131 245.612C91.2131 245.748 91.2131 245.859 91.1763 245.943C91.1744 245.979 91.1673 246.014 91.1553 246.048Z" fill="#263238"/>
<path d="M174.364 160.461C174.372 160.536 174.372 160.612 174.364 160.687C174.364 160.85 174.364 161.066 174.364 161.35C174.364 161.928 174.364 162.786 174.316 163.885C174.258 166.089 174.032 169.271 173.638 173.195C173.243 177.119 172.686 181.774 172.107 186.95C171.529 192.126 170.96 197.823 170.782 203.83C170.657 209.473 171.046 215.115 171.944 220.688C172.702 225.843 173.596 230.445 174.285 234.327C174.974 238.209 175.51 241.349 175.805 243.532C175.963 244.626 176.052 245.478 176.115 246.052C176.115 246.33 176.163 246.578 176.178 246.709C176.185 246.784 176.185 246.86 176.178 246.935C176.157 246.863 176.142 246.789 176.136 246.714C176.136 246.551 176.084 246.336 176.042 246.062C175.963 245.484 175.858 244.637 175.679 243.548C175.358 241.37 174.811 238.23 174.101 234.359C173.391 230.487 172.47 225.885 171.697 220.725C170.783 215.138 170.385 209.479 170.508 203.819C170.692 197.802 171.276 192.1 171.86 186.924C172.444 181.748 173.043 177.093 173.438 173.174C173.832 169.256 174.106 166.084 174.201 163.88C174.269 162.781 174.274 161.928 174.295 161.35C174.295 161.066 174.295 160.85 174.295 160.687C174.311 160.61 174.334 160.534 174.364 160.461Z" fill="#263238"/>
<g opacity="0.3">
<path d="M93.0232 170.182C91.5693 184.709 93.2537 199.378 97.9624 213.198L93.0232 170.182Z" fill="black"/>
</g>
<g opacity="0.3">
<path d="M145.755 220.443C139.295 226.376 132.815 231.446 124.867 234.271C130.858 234.797 136.902 232.488 141.531 228.653C146.16 224.819 149.458 220.763 151.577 215.156L145.755 220.443Z" fill="black"/>
</g>
<path d="M138.396 226.974C138.343 226.922 142.362 223.234 147.37 218.742C152.377 214.25 156.48 210.658 156.527 210.716C156.575 210.773 152.561 214.455 147.554 218.947C142.546 223.439 138.449 227.032 138.396 226.974Z" fill="#263238"/>
<path d="M152.682 115.657C152.682 116.31 152.488 116.948 152.126 117.49C151.763 118.033 151.248 118.455 150.645 118.705C150.042 118.954 149.379 119.019 148.739 118.892C148.099 118.764 147.511 118.449 147.05 117.988C146.589 117.526 146.275 116.938 146.149 116.298C146.022 115.657 146.088 114.994 146.338 114.392C146.589 113.789 147.012 113.274 147.556 112.913C148.099 112.551 148.737 112.358 149.389 112.359C149.822 112.359 150.251 112.445 150.651 112.611C151.05 112.776 151.414 113.019 151.719 113.326C152.025 113.632 152.268 113.996 152.433 114.396C152.598 114.796 152.683 115.225 152.682 115.657Z" fill="#455A64"/>
<path d="M172.307 158.969C171.335 150.904 170.364 142.838 169.392 134.773L148.537 128.461C148.132 142.852 145.612 159.011 141.993 172.945C149.708 175.442 157.862 176.292 165.926 175.438C166.277 171.546 166.627 167.653 166.978 163.761C167.497 166.696 168.023 169.629 168.556 172.561C170.744 171.335 172.033 168.879 172.47 166.422C172.906 163.966 172.606 161.483 172.307 158.969Z" fill="#263238"/>
<path d="M155.985 175.548C155.985 175.548 155.985 175.448 156.048 175.248C156.111 175.048 156.164 174.722 156.253 174.359C156.437 173.57 156.706 172.423 157.053 170.956C157.736 167.994 158.746 163.718 159.73 158.379C160.93 152.128 161.689 145.8 162.002 139.443C162.403 131.667 161.695 123.875 159.898 116.299C158.12 108.707 154.831 101.551 150.225 95.2589C149.699 94.5488 149.173 93.8282 148.584 93.1549C147.995 92.4816 147.474 91.8241 146.88 91.2192L146.012 90.2987L145.128 89.4203C144.55 88.8312 143.95 88.2894 143.371 87.7423C141.031 85.5752 138.743 83.6711 136.696 81.8827C134.65 80.0943 132.825 78.4479 131.31 76.9067C130.926 76.5228 130.579 76.1335 130.258 75.7758C129.937 75.4182 129.585 75.0552 129.29 74.7238C128.996 74.3925 128.696 74.04 128.423 73.7192L127.681 72.7724C127.197 72.1833 126.834 71.6152 126.492 71.1365C126.15 70.6579 125.898 70.2371 125.693 69.8899L125.23 69.1114C125.124 68.9326 125.077 68.8379 125.077 68.8379C125.077 68.8379 125.14 68.9221 125.256 69.0956L125.74 69.8636C125.95 70.2002 126.213 70.621 126.56 71.0892C126.908 71.5573 127.276 72.1412 127.765 72.7093L128.512 73.6455L129.385 74.6397C129.685 74.9921 130.011 75.3445 130.363 75.6917C130.716 76.0388 131.058 76.4386 131.447 76.8121C132.962 78.3427 134.798 79.9681 136.849 81.7512C138.9 83.5343 141.194 85.4332 143.55 87.5898C144.129 88.1158 144.739 88.6839 145.318 89.2677L146.207 90.1462L147.08 91.0719C147.679 91.6768 148.221 92.3554 148.794 93.0129C149.368 93.6704 149.904 94.3857 150.457 95.1169C155.082 101.434 158.383 108.621 160.161 116.246C161.968 123.849 162.677 131.671 162.265 139.474C161.94 145.834 161.159 152.162 159.93 158.41C158.92 163.755 157.884 168.026 157.168 170.982C156.805 172.455 156.516 173.612 156.316 174.375C156.216 174.753 156.137 175.043 156.085 175.253C156.032 175.463 155.985 175.548 155.985 175.548Z" fill="#455A64"/>
</svg>
