<svg width="68" height="68" viewBox="0 0 68 68" fill="none" xmlns="http://www.w3.org/2000/svg">
<circle cx="34" cy="34" r="33" stroke="#E2F0FE" stroke-width="2"/>
<path d="M44.9895 28.4275L44.5895 22.1638C44.5895 21.7596 44.1895 21.5576 43.7895 21.5576L40.5895 21.5576C40.1895 21.5576 39.7895 21.7596 39.7895 22.1638L39.5895 28.4275" stroke="#E2F0FE" stroke-width="1.625" stroke-linecap="round" stroke-linejoin="round"/>
<path d="M23.2 26.4046L26.8 29.0313C27.2 29.4354 28 29.0313 28 28.4251L28 26.8087C28 26.2025 28.8 25.7984 29.2 26.2025L32.8 28.8292C33.2 29.2334 34 28.8292 34 28.2231L34 26.4046C34 25.7984 34.6 25.3943 35.2 25.7984L39.2 28.4251L45 28.4251C45.6 28.4251 46 28.8292 46 29.4354L46 40.5486C46 41.1548 45.6 41.5589 45 41.5589L22.8 41.5589C22.4 41.5589 22 41.1548 22 40.7506L22 26.8087C22 26.2025 22.8 26.0004 23.2 26.4046Z" stroke="#E2F0FE" stroke-width="1.625" stroke-linecap="round" stroke-linejoin="round"/>
<path d="M35.9949 33.4638C35.9949 32.9116 35.5472 32.4638 34.9949 32.4638C34.4426 32.4638 33.9949 32.9116 33.9949 33.4638L33.9949 33.4844C33.9949 34.0367 34.4426 34.4844 34.9949 34.4844C35.5472 34.4844 35.9949 34.0367 35.9949 33.4844L35.9949 33.4638ZM31.9949 33.4638C31.9949 32.9116 31.5472 32.4638 30.9949 32.4638C30.4426 32.4638 29.9949 32.9116 29.9949 33.4638L29.9949 33.4844C29.9949 34.0367 30.4426 34.4844 30.9949 34.4844C31.5472 34.4844 31.9949 34.0367 31.9949 33.4844L31.9949 33.4638ZM27.9949 33.4638C27.9949 32.9116 27.5472 32.4638 26.9949 32.4638C26.4426 32.4638 25.9949 32.9116 25.9949 33.4638L25.9949 33.4844C25.9949 34.0367 26.4426 34.4844 26.9949 34.4844C27.5472 34.4844 27.9949 34.0367 27.9949 33.4844L27.9949 33.4638ZM35.9949 37.505C35.9949 36.9527 35.5472 36.505 34.9949 36.505C34.4426 36.505 33.9949 36.9527 33.9949 37.505L33.9949 37.5256C33.9949 38.0778 34.4426 38.5256 34.9949 38.5256C35.5472 38.5256 35.9949 38.0778 35.9949 37.5256L35.9949 37.505ZM31.9949 37.505C31.9949 36.9527 31.5472 36.505 30.9949 36.505C30.4426 36.505 29.9949 36.9527 29.9949 37.505L29.9949 37.5256C29.9949 38.0778 30.4426 38.5256 30.9949 38.5256C31.5472 38.5256 31.9949 38.0778 31.9949 37.5256L31.9949 37.505ZM27.9949 37.505C27.9949 36.9527 27.5472 36.505 26.9949 36.505C26.4426 36.505 25.9949 36.9527 25.9949 37.505L25.9949 37.5256C25.9949 38.0778 26.4426 38.5256 26.9949 38.5256C27.5472 38.5256 27.9949 38.0778 27.9949 37.5256L27.9949 37.505Z" fill="#E2F0FE"/>
</svg>
