<svg width="32" height="32" viewBox="0 0 32 32" fill="none" xmlns="http://www.w3.org/2000/svg">
<g id="monetization_on">
<mask id="mask0_14843_342453" style="mask-type:alpha" maskUnits="userSpaceOnUse" x="0" y="0" width="32" height="32">
<rect id="Bounding box" width="32" height="32" fill="#D9D9D9"/>
</mask>
<g mask="url(#mask0_14843_342453)">
<path id="monetization_on_2" d="M10.3567 19.6719C10.6673 20.7385 11.1499 21.5997 11.8045 22.2552C12.4591 22.9108 13.3078 23.3608 14.3507 23.6052V24.1719C14.3507 24.483 14.4672 24.7552 14.7002 24.9885C14.9332 25.2219 15.205 25.3385 15.5157 25.3385C15.8263 25.3385 16.0982 25.2219 16.3311 24.9885C16.5641 24.7552 16.6806 24.483 16.6806 24.1719V23.6719C17.7901 23.4719 18.7442 23.0385 19.543 22.3719C20.3419 21.7052 20.7413 20.7163 20.7413 19.4052C20.7413 18.4719 20.475 17.6163 19.9425 16.8385C19.4099 16.0608 18.3448 15.383 16.7472 14.8052C15.4158 14.3608 14.495 13.9719 13.9846 13.6385C13.4743 13.3052 13.2191 12.8497 13.2191 12.2719C13.2191 11.6941 13.4243 11.2385 13.8348 10.9052C14.2453 10.5719 14.8389 10.4052 15.6155 10.4052C16.3256 10.4052 16.8803 10.5774 17.2797 10.9219C17.6791 11.2663 17.9676 11.6941 18.1451 12.2052L20.2753 11.3385C20.0312 10.5608 19.5819 9.88299 18.9273 9.30521C18.2727 8.72743 17.546 8.40521 16.7472 8.33854V7.83854C16.7472 7.52743 16.6307 7.25521 16.3977 7.02188C16.1647 6.78854 15.8929 6.67188 15.5822 6.67188C15.2716 6.67188 14.9998 6.78854 14.7668 7.02188C14.5338 7.25521 14.4173 7.52743 14.4173 7.83854V8.33854C13.3078 8.58299 12.4425 9.07188 11.8212 9.80521C11.1999 10.5385 10.8892 11.3608 10.8892 12.2719C10.8892 13.3163 11.1943 14.1608 11.8045 14.8052C12.4147 15.4497 13.3744 16.0052 14.6836 16.4719C16.0815 16.983 17.0523 17.4385 17.5959 17.8385C18.1396 18.2385 18.4114 18.7608 18.4114 19.4052C18.4114 20.1385 18.1507 20.6774 17.6292 21.0219C17.1078 21.3663 16.4809 21.5385 15.7487 21.5385C15.0164 21.5385 14.3674 21.3108 13.8016 20.8552C13.2357 20.3997 12.8197 19.7163 12.5534 18.8052L10.3567 19.6719ZM15.549 29.3385C13.7072 29.3385 11.9765 28.9885 10.3567 28.2885C8.73683 27.5885 7.32781 26.6385 6.12958 25.4385C4.93136 24.2385 3.98276 22.8274 3.2838 21.2052C2.58483 19.583 2.23535 17.8497 2.23535 16.0052C2.23535 14.1608 2.58483 12.4274 3.2838 10.8052C3.98276 9.18299 4.93136 7.77188 6.12958 6.57188C7.32781 5.37188 8.73683 4.42188 10.3567 3.72188C11.9765 3.02188 13.7072 2.67188 15.549 2.67188C17.3907 2.67188 19.1215 3.02188 20.7413 3.72188C22.3611 4.42188 23.7701 5.37188 24.9683 6.57188C26.1666 7.77188 27.1152 9.18299 27.8141 10.8052C28.5131 12.4274 28.8626 14.1608 28.8626 16.0052C28.8626 17.8497 28.5131 19.583 27.8141 21.2052C27.1152 22.8274 26.1666 24.2385 24.9683 25.4385C23.7701 26.6385 22.3611 27.5885 20.7413 28.2885C19.1215 28.9885 17.3907 29.3385 15.549 29.3385ZM15.549 26.6719C18.5223 26.6719 21.0408 25.6385 23.1044 23.5719C25.168 21.5052 26.1999 18.983 26.1999 16.0052C26.1999 13.0274 25.168 10.5052 23.1044 8.43854C21.0408 6.37188 18.5223 5.33854 15.549 5.33854C12.5756 5.33854 10.0571 6.37188 7.99349 8.43854C5.92988 10.5052 4.89807 13.0274 4.89807 16.0052C4.89807 18.983 5.92988 21.5052 7.99349 23.5719C10.0571 25.6385 12.5756 26.6719 15.549 26.6719Z" fill="#F2AD3D"/>
</g>
</g>
</svg>
