<svg width="20" height="20" viewBox="0 0 20 20" fill="none" xmlns="http://www.w3.org/2000/svg">
<g id="receipt-text-clock-outline">
<path id="Vector" d="M12.5 13.9077V10.8327H13.75V13.1827L15.7833 14.3577L15.1583 15.441L12.5 13.9077ZM8.81667 17.016L7.5 18.3327L6.25 17.0827L5 18.3327L3.75 17.0827L2.5 18.3327V1.66602L3.75 2.91602L5 1.66602L6.25 2.91602L7.5 1.66602L8.75 2.91602L10 1.66602L11.25 2.91602L12.5 1.66602L13.75 2.91602L15 1.66602L16.25 2.91602L17.5 1.66602V9.24935C18.5667 10.341 19.1667 11.8077 19.1667 13.3327C19.1667 16.5577 16.55 19.166 13.3333 19.166C11.7833 19.166 10.3 18.5493 9.20833 17.4577C9.06667 17.316 8.93333 17.1743 8.81667 17.016ZM8.1 15.9077C7.83333 15.3577 7.65 14.7743 7.55833 14.166H5V12.4993H7.55833C7.64167 11.9077 7.81667 11.3493 8.06667 10.8327H5V9.16602H9.25C10.3083 8.13268 11.75 7.49935 13.3333 7.49935H5V5.83268H15V7.49935H13.3333C14.2083 7.49935 15.0583 7.69935 15.8333 8.06602V4.09102H4.16667V15.9077H8.1ZM17.375 13.3327C17.375 11.0993 15.5583 9.29102 13.3333 9.29102C12.2583 9.29102 11.25 9.71601 10.475 10.4743C9.71667 11.2493 9.29167 12.2577 9.29167 13.3327C9.29167 15.566 11.1 17.3743 13.3333 17.3743C13.8667 17.3743 14.3917 17.2743 14.8833 17.0827C15.3667 16.866 15.8333 16.566 16.1917 16.191C16.5667 15.8327 16.8667 15.366 17.0833 14.8827C17.275 14.391 17.375 13.866 17.375 13.3327Z" fill="white"/>
</g>
</svg>
