<svg width="149" height="91" viewBox="0 0 149 91" fill="none" xmlns="http://www.w3.org/2000/svg">
<g clip-path="url(#clip0_401_9111)">
<path d="M146.25 90.9099C147.708 90.9099 148.89 89.7279 148.89 88.2699C148.89 86.8119 147.708 85.6299 146.25 85.6299C144.792 85.6299 143.61 86.8119 143.61 88.2699C143.61 89.7279 144.792 90.9099 146.25 90.9099Z" fill="#3B82F6"/>
<path d="M122.31 90.9099C123.768 90.9099 124.95 89.7279 124.95 88.2699C124.95 86.8119 123.768 85.6299 122.31 85.6299C120.852 85.6299 119.67 86.8119 119.67 88.2699C119.67 89.7279 120.852 90.9099 122.31 90.9099Z" fill="#3B82F6"/>
<path d="M98.3802 90.9094C98.9048 90.9114 99.4181 90.7577 99.8552 90.4677C100.292 90.1777 100.634 89.7645 100.836 89.2804C101.038 88.7964 101.092 88.2633 100.991 87.7486C100.889 87.2338 100.638 86.7607 100.268 86.3891C99.8975 86.0175 99.4253 85.7641 98.911 85.661C98.3967 85.558 97.8633 85.6099 97.3785 85.8101C96.8937 86.0104 96.4793 86.3501 96.1876 86.7861C95.896 87.2221 95.7402 87.7348 95.7402 88.2594C95.7402 88.9605 96.0181 89.633 96.5129 90.1297C97.0078 90.6263 97.6792 90.9067 98.3802 90.9094Z" fill="#3B82F6"/>
<path d="M74.45 90.9104C74.9741 90.9104 75.4865 90.7549 75.9223 90.4638C76.3581 90.1726 76.6977 89.7587 76.8983 89.2745C77.0988 88.7903 77.1513 88.2574 77.049 87.7434C76.9468 87.2293 76.6944 86.7572 76.3238 86.3865C75.9532 86.0159 75.481 85.7635 74.967 85.6613C74.4529 85.559 73.9201 85.6115 73.4359 85.8121C72.9516 86.0127 72.5378 86.3523 72.2467 86.7881C71.9555 87.2239 71.8 87.7362 71.8 88.2603C71.8 88.6083 71.8685 88.953 72.0017 89.2745C72.1348 89.596 72.3301 89.8881 72.5761 90.1342C72.8222 90.3802 73.1144 90.5755 73.4359 90.7087C73.7574 90.8419 74.102 90.9104 74.45 90.9104Z" fill="#3B82F6"/>
<path d="M50.51 90.9099C51.968 90.9099 53.15 89.7279 53.15 88.2699C53.15 86.8119 51.968 85.6299 50.51 85.6299C49.052 85.6299 47.87 86.8119 47.87 88.2699C47.87 89.7279 49.052 90.9099 50.51 90.9099Z" fill="#3B82F6"/>
<path d="M27.5903 90.5952C28.9388 90.0408 29.5826 88.4982 29.0281 87.1497C28.4737 85.8012 26.9311 85.1575 25.5826 85.7119C24.234 86.2664 23.5903 87.809 24.1447 89.1575C24.6992 90.506 26.2418 91.1497 27.5903 90.5952Z" fill="#3B82F6"/>
<path d="M2.65 85.6602C2.12503 85.6582 1.61137 85.8122 1.17405 86.1026C0.736729 86.393 0.395512 86.8068 0.193702 87.2915C-0.00810887 87.7761 -0.0614283 88.3097 0.0405035 88.8247C0.142435 89.3397 0.395001 89.8128 0.766212 90.184C1.13742 90.5552 1.61048 90.8078 2.12546 90.9097C2.64044 91.0116 3.17416 90.9583 3.65879 90.7565C4.14342 90.5547 4.55721 90.2135 4.84763 89.7762C5.13806 89.3389 5.29199 88.8252 5.29002 88.3002C5.28738 87.6008 5.00842 86.9308 4.51389 86.4363C4.01937 85.9418 3.34936 85.6628 2.65 85.6602Z" fill="#3B82F6"/>
<path d="M146.25 69.5007C147.708 69.5007 148.89 68.3187 148.89 66.8607C148.89 65.4027 147.708 64.2207 146.25 64.2207C144.792 64.2207 143.61 65.4027 143.61 66.8607C143.61 68.3187 144.792 69.5007 146.25 69.5007Z" fill="#3B82F6"/>
<path d="M122.31 69.4997C123.768 69.4997 124.95 68.3178 124.95 66.8597C124.95 65.4017 123.768 64.2197 122.31 64.2197C120.852 64.2197 119.67 65.4017 119.67 66.8597C119.67 68.3178 120.852 69.4997 122.31 69.4997Z" fill="#3B82F6"/>
<path d="M98.3803 69.5002C98.9052 69.5022 99.419 69.3482 99.8563 69.0578C100.294 68.7673 100.635 68.3535 100.837 67.8689C101.038 67.3843 101.092 66.8506 100.99 66.3357C100.888 65.8207 100.635 65.3475 100.264 64.9763C99.893 64.6051 99.4198 64.3526 98.9048 64.2506C98.3898 64.1487 97.8562 64.202 97.3716 64.4038C96.887 64.6056 96.4732 64.9469 96.1828 65.3842C95.8923 65.8215 95.7383 66.3352 95.7403 66.8602C95.7429 67.5595 96.022 68.2295 96.5165 68.724C97.011 69.2185 97.6809 69.4976 98.3803 69.5002Z" fill="#3B82F6"/>
<path d="M74.45 69.5002C74.9746 69.5002 75.4873 69.3445 75.9233 69.0529C76.3593 68.7612 76.699 68.3468 76.8993 67.862C77.0995 67.3772 77.1514 66.8438 77.0483 66.3295C76.9452 65.8152 76.6919 65.343 76.3203 64.9728C75.9487 64.6026 75.4755 64.351 74.9608 64.2499C74.4461 64.1488 73.913 64.2027 73.4289 64.4048C72.9449 64.6069 72.5318 64.9481 72.2418 65.3852C71.9518 65.8223 71.798 66.3356 71.8 66.8602C71.8 67.2077 71.8686 67.5518 72.0019 67.8728C72.1352 68.1937 72.3305 68.4852 72.5768 68.7305C72.823 68.9758 73.1152 69.17 73.4366 69.3021C73.7581 69.4342 74.1025 69.5015 74.45 69.5002Z" fill="#3B82F6"/>
<path d="M50.51 69.4997C51.968 69.4997 53.15 68.3178 53.15 66.8597C53.15 65.4017 51.968 64.2197 50.51 64.2197C49.052 64.2197 47.87 65.4017 47.87 66.8597C47.87 68.3178 49.052 69.4997 50.51 69.4997Z" fill="#3B82F6"/>
<path d="M27.593 69.193C28.9416 68.6385 29.5853 67.0959 29.0308 65.7474C28.4764 64.3989 26.9337 63.7551 25.5852 64.3096C24.2367 64.864 23.593 66.4067 24.1475 67.7552C24.7019 69.1037 26.2445 69.7474 27.593 69.193Z" fill="#3B82F6"/>
<path d="M2.65 69.5002C3.17454 69.5002 3.68726 69.3445 4.12327 69.0529C4.55927 68.7612 4.89894 68.3468 5.09922 67.862C5.29949 67.3772 5.35145 66.8438 5.24839 66.3295C5.14532 65.8152 4.89185 65.343 4.52024 64.9728C4.14863 64.6026 3.67557 64.351 3.16086 64.2499C2.64616 64.1488 2.11305 64.2027 1.629 64.4048C1.14496 64.6069 0.731727 64.9481 0.441747 65.3852C0.151768 65.8223 -0.00200441 66.3356 -2.4997e-05 66.8602C-2.74902e-05 67.2077 0.068582 67.5518 0.201879 67.8728C0.335177 68.1937 0.530624 68.4852 0.77683 68.7305C1.02304 68.9758 1.31524 69.17 1.63669 69.3021C1.95815 69.4342 2.30247 69.5015 2.65 69.5002Z" fill="#3B82F6"/>
<path d="M146.25 48.0905C147.708 48.0905 148.89 46.9086 148.89 45.4505C148.89 43.9925 147.708 42.8105 146.25 42.8105C144.792 42.8105 143.61 43.9925 143.61 45.4505C143.61 46.9086 144.792 48.0905 146.25 48.0905Z" fill="#3B82F6"/>
<path d="M122.31 48.0896C123.768 48.0896 124.95 46.9076 124.95 45.4496C124.95 43.9915 123.768 42.8096 122.31 42.8096C120.852 42.8096 119.67 43.9915 119.67 45.4496C119.67 46.9076 120.852 48.0896 122.31 48.0896Z" fill="#3B82F6"/>
<path d="M98.3802 48.0998C98.9048 48.1018 99.4181 47.9481 99.8552 47.6581C100.292 47.3681 100.634 46.9549 100.836 46.4708C101.038 45.9868 101.092 45.4537 100.991 44.939C100.889 44.4243 100.638 43.9512 100.268 43.5795C99.8975 43.2079 99.4253 42.9545 98.911 42.8515C98.3967 42.7484 97.8633 42.8003 97.3785 43.0006C96.8937 43.2008 96.4793 43.5405 96.1876 43.9765C95.896 44.4125 95.7402 44.9252 95.7402 45.4498C95.7402 46.1509 96.0181 46.8234 96.5129 47.3201C97.0078 47.8168 97.6792 48.0972 98.3802 48.0998Z" fill="#3B82F6"/>
<path d="M74.45 48.0998C74.9741 48.0998 75.4865 47.9444 75.9223 47.6532C76.3581 47.362 76.6977 46.9482 76.8983 46.4639C77.0988 45.9797 77.1513 45.4469 77.049 44.9328C76.9468 44.4188 76.6944 43.9465 76.3238 43.5759C75.9532 43.2053 75.481 42.953 74.967 42.8507C74.4529 42.7485 73.9201 42.801 73.4359 43.0015C72.9516 43.2021 72.5378 43.5418 72.2467 43.9776C71.9555 44.4133 71.8 44.9257 71.8 45.4498C71.8 45.7978 71.8685 46.1424 72.0017 46.4639C72.1348 46.7855 72.3301 47.0775 72.5761 47.3236C72.8222 47.5697 73.1144 47.7649 73.4359 47.8981C73.7574 48.0313 74.102 48.0998 74.45 48.0998Z" fill="#3B82F6"/>
<path d="M50.51 48.0896C51.968 48.0896 53.15 46.9076 53.15 45.4496C53.15 43.9915 51.968 42.8096 50.51 42.8096C49.052 42.8096 47.87 43.9915 47.87 45.4496C47.87 46.9076 49.052 48.0896 50.51 48.0896Z" fill="#3B82F6"/>
<path d="M27.5913 47.7915C28.9398 47.2371 29.5835 45.6944 29.029 44.3459C28.4746 42.9974 26.932 42.3538 25.5835 42.9082C24.235 43.4626 23.5912 45.0052 24.1457 46.3537C24.7001 47.7022 26.2428 48.346 27.5913 47.7915Z" fill="#3B82F6"/>
<path d="M2.64998 48.0998C3.1741 48.0998 3.68648 47.9444 4.12227 47.6532C4.55806 47.362 4.89765 46.9482 5.09822 46.4639C5.29879 45.9797 5.35135 45.4469 5.2491 44.9328C5.14685 44.4188 4.89449 43.9465 4.52388 43.5759C4.15327 43.2053 3.681 42.953 3.16695 42.8507C2.6529 42.7485 2.12017 42.801 1.63594 43.0015C1.15172 43.2021 0.737797 43.5418 0.446611 43.9776C0.155426 44.4133 -4.3869e-05 44.9257 -4.3869e-05 45.4498C-4.3869e-05 46.1526 0.27923 46.8266 0.776201 47.3236C1.27317 47.8206 1.94716 48.0998 2.64998 48.0998Z" fill="#3B82F6"/>
<path d="M146.25 26.6902C147.708 26.6902 148.89 25.5082 148.89 24.0502C148.89 22.5921 147.708 21.4102 146.25 21.4102C144.792 21.4102 143.61 22.5921 143.61 24.0502C143.61 25.5082 144.792 26.6902 146.25 26.6902Z" fill="#3B82F6"/>
<path d="M122.31 26.6902C123.768 26.6902 124.95 25.5082 124.95 24.0502C124.95 22.5921 123.768 21.4102 122.31 21.4102C120.852 21.4102 119.67 22.5921 119.67 24.0502C119.67 25.5082 120.852 26.6902 122.31 26.6902Z" fill="#3B82F6"/>
<path d="M98.3803 26.6594C98.9052 26.6614 99.419 26.5074 99.8563 26.2169C100.294 25.9265 100.635 25.5127 100.837 25.0281C101.038 24.5435 101.092 24.0098 100.99 23.4948C100.888 22.9799 100.635 22.5068 100.264 22.1356C99.893 21.7644 99.4198 21.5117 98.9048 21.4098C98.3898 21.3079 97.8562 21.3612 97.3716 21.563C96.887 21.7648 96.4732 22.106 96.1828 22.5434C95.8923 22.9807 95.7383 23.4944 95.7403 24.0194C95.7429 24.7187 96.022 25.3887 96.5165 25.8833C97.011 26.3778 97.6809 26.6567 98.3803 26.6594Z" fill="#3B82F6"/>
<path d="M74.45 26.6604C74.9746 26.6604 75.4873 26.5047 75.9233 26.213C76.3593 25.9214 76.699 25.507 76.8993 25.0222C77.0995 24.5374 77.1514 24.004 77.0483 23.4897C76.9452 22.9754 76.6919 22.5032 76.3203 22.133C75.9487 21.7628 75.4755 21.5112 74.9608 21.4101C74.4461 21.3089 73.913 21.3629 73.4289 21.565C72.9449 21.7671 72.5318 22.1083 72.2418 22.5454C71.9518 22.9825 71.798 23.4958 71.8 24.0203C71.8 24.3679 71.8686 24.712 72.0019 25.033C72.1352 25.3539 72.3305 25.6454 72.5768 25.8906C72.823 26.1359 73.1152 26.3302 73.4366 26.4623C73.7581 26.5944 74.1025 26.6617 74.45 26.6604Z" fill="#3B82F6"/>
<path d="M50.51 26.6902C51.968 26.6902 53.15 25.5082 53.15 24.0502C53.15 22.5921 51.968 21.4102 50.51 21.4102C49.052 21.4102 47.87 22.5921 47.87 24.0502C47.87 25.5082 49.052 26.6902 50.51 26.6902Z" fill="#3B82F6"/>
<path d="M27.594 26.3892C28.9425 25.8348 29.5863 24.2922 29.0318 22.9437C28.4774 21.5952 26.9347 20.9514 25.5862 21.5059C24.2377 22.0603 23.594 23.603 24.1484 24.9515C24.7029 26.3 26.2455 26.9437 27.594 26.3892Z" fill="#3B82F6"/>
<path d="M2.65 26.6604C3.17454 26.6604 3.68726 26.5047 4.12327 26.213C4.55927 25.9214 4.89894 25.507 5.09922 25.0222C5.29949 24.5374 5.35145 24.004 5.24839 23.4897C5.14532 22.9754 4.89185 22.5032 4.52024 22.133C4.14863 21.7628 3.67557 21.5112 3.16086 21.4101C2.64616 21.3089 2.11305 21.3629 1.629 21.565C1.14496 21.7671 0.731727 22.1083 0.441747 22.5454C0.151768 22.9825 -0.00200441 23.4958 -2.4997e-05 24.0203C-2.74902e-05 24.3679 0.068582 24.712 0.201879 25.033C0.335177 25.3539 0.530624 25.6454 0.77683 25.8906C1.02304 26.1359 1.31524 26.3302 1.63669 26.4623C1.95815 26.5944 2.30247 26.6617 2.65 26.6604Z" fill="#3B82F6"/>
<path d="M146.25 5.28C147.708 5.28 148.89 4.09803 148.89 2.64C148.89 1.18197 147.708 0 146.25 0C144.792 0 143.61 1.18197 143.61 2.64C143.61 4.09803 144.792 5.28 146.25 5.28Z" fill="#3B82F6"/>
<path d="M122.31 5.28C123.768 5.28 124.95 4.09803 124.95 2.64C124.95 1.18197 123.768 0 122.31 0C120.852 0 119.67 1.18197 119.67 2.64C119.67 4.09803 120.852 5.28 122.31 5.28Z" fill="#3B82F6"/>
<path d="M98.3802 5.29024C98.9048 5.29222 99.4181 5.13851 99.8552 4.84853C100.292 4.55855 100.634 4.14532 100.836 3.66127C101.038 3.17723 101.092 2.64412 100.991 2.12941C100.889 1.61471 100.638 1.14159 100.268 0.769978C99.8975 0.398368 99.4253 0.144953 98.911 0.0418894C98.3967 -0.0611745 97.8633 -0.00927669 97.3785 0.190998C96.8937 0.391273 96.4793 0.730946 96.1876 1.16695C95.896 1.60295 95.7402 2.11567 95.7402 2.64022C95.7402 3.34131 96.0181 4.01383 96.5129 4.51052C97.0078 5.0072 97.6792 5.2876 98.3802 5.29024Z" fill="#3B82F6"/>
<path d="M74.45 5.29023C74.9741 5.29023 75.4865 5.13483 75.9223 4.84364C76.3581 4.55245 76.6977 4.13859 76.8983 3.65437C77.0988 3.17015 77.1513 2.63729 77.049 2.12324C76.9468 1.60919 76.6944 1.13698 76.3238 0.76637C75.9532 0.395761 75.481 0.143401 74.967 0.04115C74.4529 -0.0611008 73.9201 -0.00860433 73.4359 0.191968C72.9516 0.39254 72.5378 0.732191 72.2467 1.16798C71.9555 1.60377 71.8 2.11609 71.8 2.64021C71.8 2.98821 71.8685 3.33286 72.0017 3.65437C72.1348 3.97588 72.3301 4.26798 72.5761 4.51405C72.8222 4.76013 73.1144 4.95534 73.4359 5.08851C73.7574 5.22169 74.102 5.29023 74.45 5.29023Z" fill="#3B82F6"/>
<path d="M50.51 5.28C51.968 5.28 53.15 4.09803 53.15 2.64C53.15 1.18197 51.968 0 50.51 0C49.052 0 47.87 1.18197 47.87 2.64C47.87 4.09803 49.052 5.28 50.51 5.28Z" fill="#3B82F6"/>
<path d="M27.5922 4.97708C28.9407 4.42265 29.5844 2.87999 29.03 1.53149C28.4755 0.182988 26.9329 -0.460681 25.5844 0.0937553C24.2359 0.648191 23.5921 2.19079 24.1466 3.53929C24.701 4.88779 26.2437 5.53152 27.5922 4.97708Z" fill="#3B82F6"/>
<path d="M2.64998 5.29023C3.1741 5.29023 3.68648 5.13483 4.12227 4.84364C4.55806 4.55245 4.89765 4.13859 5.09822 3.65437C5.29879 3.17015 5.35135 2.63729 5.2491 2.12324C5.14685 1.60919 4.89449 1.13698 4.52388 0.76637C4.15327 0.395761 3.681 0.143401 3.16695 0.04115C2.6529 -0.0611008 2.12017 -0.00860433 1.63594 0.191968C1.15172 0.39254 0.737797 0.732191 0.446611 1.16798C0.155426 1.60377 -4.3869e-05 2.11609 -4.3869e-05 2.64021C-4.3869e-05 3.34303 0.27923 4.01708 0.776201 4.51405C1.27317 5.01102 1.94716 5.29023 2.64998 5.29023Z" fill="#3B82F6"/>
</g>
<defs>
<clipPath id="clip0_401_9111">
<rect width="148.89" height="90.91" fill="white"/>
</clipPath>
</defs>
</svg>
