<svg xmlns="http://www.w3.org/2000/svg" width="90" height="57" viewBox="0 0 90 57" fill="none">
  <g clip-path="url(#clip0_401_9111)">
    <path d="M-37.4844 55.1542C-37.4844 55.1542 12.9641 46.9908 25.9403 15.4808C38.2924 -14.5733 89.4951 -21.6709 89.4951 -21.6709" stroke="#F8BB54" stroke-width="2" stroke-miterlimit="10"/>
    <path d="M-37.4844 55.1542C-37.4844 55.1542 12.9641 46.9908 25.9403 15.4808C38.2924 -14.5733 89.4951 -21.6709 89.4951 -21.6709" stroke="#F8BB54" stroke-width="2" stroke-miterlimit="10"/>
    <path d="M-37.4844 64.5136C-37.4844 64.5136 19.7773 55.4923 34.4958 19.9784C48.486 -13.8714 106.554 -21.6709 106.554 -21.6709" stroke="#F8BB54" stroke-width="2" stroke-miterlimit="10"/>
    <path d="M-37.4844 73.899C-37.4844 73.899 26.5644 64.0196 43.0252 24.476C58.7058 -13.1955 123.639 -21.6709 123.639 -21.6709" stroke="#F8BB54" stroke-width="2" stroke-miterlimit="10"/>
    <path d="M-37.4844 83.2584C-37.4844 83.2584 33.3776 72.495 51.5807 28.9739C68.8996 -12.4935 140.724 -21.6709 140.724 -21.6709" stroke="#F8BB54" stroke-width="2" stroke-miterlimit="10"/>
    <path d="M-37.4844 92.6178C-37.4844 92.6178 40.1908 80.9965 60.11 33.4456C79.0932 -11.7916 157.809 -21.6709 157.809 -21.6709" stroke="#F8BB54" stroke-width="2" stroke-miterlimit="10"/>
    <path d="M-37.4844 167.572C-37.4844 167.572 94.618 149.034 128.476 69.4272C160.643 -6.25392 294.436 -21.6709 294.436 -21.6709" stroke="#F8BB54" stroke-width="2" stroke-miterlimit="10"/>
  </g>
</svg>