<svg width="51" height="48" viewBox="0 0 51 48" fill="none" xmlns="http://www.w3.org/2000/svg">
<g clip-path="url(#clip0_34_259)">
<path d="M15.6797 23.8899C15.6797 19.3499 19.3597 15.6799 23.8897 15.6799C28.4197 15.6799 32.0997 19.3599 32.0997 23.8899" stroke="#A98CFF" stroke-width="4.6" stroke-miterlimit="10"/>
<path d="M32.1099 23.8901C32.1099 28.4301 28.4299 32.1001 23.8999 32.1001C19.3699 32.1001 15.6899 28.4201 15.6899 23.8901" stroke="#7955DB" stroke-width="4.6" stroke-miterlimit="10"/>
<path d="M31.6996 9.63005C30.5396 10.06 29.0896 9.54005 28.7796 8.42005L27.0896 2.30005H20.7096L19.0196 8.42005C18.7096 9.55005 17.4196 10.08 16.4096 9.50005L10.8896 6.37005L6.37957 10.88L9.50957 16.4C10.0896 17.42 9.54957 18.7 8.42957 19.01L2.30957 20.7001V23.89" stroke="#A98CFF" stroke-width="4.6" stroke-miterlimit="10"/>
<path d="M2.2998 23.8901V27.0801L8.4198 28.7701C9.5498 29.0801 10.0798 30.3701 9.4998 31.3801L6.3698 36.9001L10.8798 41.4101L16.3998 38.2801C17.4198 37.7001 18.6998 38.2401 19.0098 39.3601L20.6998 45.4801H27.0798L28.7698 39.3601C29.0798 38.2301 30.5698 37.8601 31.6498 38.2301" stroke="#7955DB" stroke-width="4.6" stroke-miterlimit="10"/>
<path d="M48.3601 13.1001V36.3401L45.5201 44.6301C45.0401 45.7801 43.4201 45.7801 42.9401 44.6301L40.1001 36.3401V26.0901" stroke="#7955DB" stroke-width="4.6" stroke-miterlimit="10"/>
<path d="M40.1001 13.06V2.30005H44.3001C46.5401 2.30005 48.3601 4.12005 48.3601 6.36005V13.1" stroke="#A98CFF" stroke-width="4.6" stroke-miterlimit="10"/>
<path d="M40.1001 13.0601V21.6701" stroke="#7955DB" stroke-width="4.6" stroke-miterlimit="10"/>
<path d="M27.6602 23.8899H40.4202" stroke="white" stroke-width="4.6" stroke-miterlimit="10"/>
</g>
<defs>
<clipPath id="clip0_34_259">
<rect width="50.66" height="47.79" fill="white"/>
</clipPath>
</defs>
</svg>
