<svg width="29" height="29" viewBox="0 0 29 29" fill="none" xmlns="http://www.w3.org/2000/svg">
<path d="M12.2225 14.9912L16.6247 10.4912C16.7916 10.3206 16.8721 10.1147 16.8664 9.87353C16.8606 9.63236 16.7743 9.42648 16.6074 9.25589C16.4405 9.0853 16.2363 9 15.9946 9C15.7529 9 15.5486 9.0853 15.3817 9.25589L10.3753 14.3735C10.2832 14.4677 10.2185 14.5647 10.1811 14.6647C10.1437 14.7647 10.125 14.8735 10.125 14.9912C10.125 15.1088 10.1437 15.2176 10.1811 15.3176C10.2185 15.4177 10.2832 15.5147 10.3753 15.6088L15.399 20.7441C15.5659 20.9147 15.7701 21 16.0118 21C16.2535 21 16.4578 20.9147 16.6247 20.7441C16.7916 20.5735 16.875 20.3647 16.875 20.1177C16.875 19.8706 16.7916 19.6618 16.6247 19.4912L12.2225 14.9912Z" fill="#1C1B1F"/>
</svg>
