<svg width="1343" height="3575" viewBox="0 0 1343 3575" fill="none" xmlns="http://www.w3.org/2000/svg">
<path d="M675.5 0V574C675.5 618.183 639.683 654 595.5 654H226C181.817 654 146 689.817 146 734V883.5C146 927.683 181.817 963.5 226 963.5H1116.5C1160.68 963.5 1196.5 999.317 1196.5 1043.5V1217C1196.5 1261.18 1160.68 1297 1116.5 1297H782.5C738.317 1297 702.5 1332.82 702.5 1377V1769.5C702.5 1813.68 666.683 1849.5 622.5 1849.5H86C41.8172 1849.5 6 1885.32 6 1929.5V2049C6 2093.18 41.8172 2129 86 2129H955C999.183 2129 1035 2164.82 1035 2209V3059C1035 3103.18 1070.82 3139 1115 3139H1257.5C1301.68 3139 1337.5 3174.82 1337.5 3219V3363.5C1337.5 3407.68 1301.68 3443.5 1257.5 3443.5H782.5C738.317 3443.5 702.5 3479.32 702.5 3523.5V3575" stroke="#DB78A1" stroke-width="11"/>
</svg>
