<svg width="57" height="71" viewBox="0 0 57 71" fill="none" xmlns="http://www.w3.org/2000/svg">
<path d="M28.2998 70.59L26.4698 69.77C1.41985 58.48 0.129844 37.39 0.0898438 36.5V36.31V22.23H8.09984V36.19C8.19984 37.47 9.69984 52.49 27.9498 61.61C48.1198 49.74 48.1498 36.61 48.1498 36.48V36.31V29.71H56.1598V36.28C56.1898 38.1 55.7598 55.43 30.0698 69.63L28.3198 70.6L28.2998 70.59Z" fill="#7955DB"/>
<path d="M56.1401 22.23H48.1301V8.11998H12.5701C10.1001 8.11998 8.09008 10.13 8.09008 12.6V22.23H0.0800781V12.6C0.0800781 5.70998 5.68008 0.109985 12.5701 0.109985H56.1401V22.23Z" fill="#A98CFF"/>
<path d="M28.1101 14.69L24.4001 26.11H12.3901L22.1101 33.17L18.4001 44.6L28.1101 37.54L37.8301 44.6L34.1201 33.17L43.8401 26.11H31.8201L28.1101 14.69Z" fill="#7955DB"/>
</svg>
