<svg width="50" height="40" viewBox="0 0 50 40" fill="none" xmlns="http://www.w3.org/2000/svg">
<g clip-path="url(#clip0_34_294)">
<path d="M20.9297 10.03C20.9297 14.3 17.4697 17.76 13.1997 17.76C8.92973 17.76 5.46973 14.3 5.46973 10.03" stroke="#7955DB" stroke-width="4.6" stroke-miterlimit="10"/>
<path d="M5.47998 10.03C5.47998 5.76005 8.93998 2.30005 13.21 2.30005C17.48 2.30005 20.94 5.76005 20.94 10.03" stroke="#A98CFF" stroke-width="4.6" stroke-miterlimit="10"/>
<path d="M25.0998 39.6901V33.6801C25.0998 28.9701 21.2798 25.1501 16.5698 25.1501H10.8298C6.1198 25.1501 2.2998 28.9701 2.2998 33.6801V39.6901" stroke="#7955DB" stroke-width="4.6" stroke-miterlimit="10"/>
<path d="M32.5 9.40011L37.71 14.6001L47.47 3.61011" stroke="#A98CFF" stroke-width="4.6" stroke-miterlimit="10"/>
<path d="M31.2798 37.3799H48.8098" stroke="#7955DB" stroke-width="4.6" stroke-miterlimit="10"/>
<path d="M31.2798 25.8201H48.8098" stroke="#7955DB" stroke-width="4.6" stroke-miterlimit="10"/>
</g>
<defs>
<clipPath id="clip0_34_294">
<rect width="49.19" height="39.69" fill="white"/>
</clipPath>
</defs>
</svg>
