<svg width="54" height="54" viewBox="0 0 54 54" fill="none" xmlns="http://www.w3.org/2000/svg">
<g clip-path="url(#clip0_34_250)">
<path d="M41.1581 53.9999H0V19.282H5.8779V48.1092H41.1709C45.0043 48.1092 48.1221 44.9914 48.1221 41.158V20.5853H54V41.158C54 48.237 48.2371 53.9871 41.1709 53.9871L41.1581 53.9999Z" fill="#A98CFF"/>
<path d="M5.8779 20.0615H0V0H54V14.8864H48.1221V5.8779H5.8779V20.0615Z" fill="#7955DB"/>
<path d="M42.2699 12.4458H30.2969V18.3237H42.2699V12.4458Z" fill="#A98CFF"/>
<path d="M42.2699 24.5723H30.2969V30.4502H42.2699V24.5723Z" fill="#A98CFF"/>
<path d="M42.2699 36.6985H30.2969V42.5764H42.2699V36.6985Z" fill="#A98CFF"/>
<path d="M18.4134 39.5226C16.4072 39.5226 14.6311 39.1009 13.0849 38.2703C11.5388 37.4398 10.4015 36.2131 9.69873 34.6158L13.7749 32.5841C14.1327 33.3891 14.7077 34.0025 15.5 34.4242C16.2922 34.8458 17.2633 35.0631 18.4261 35.0631C19.1417 35.0631 19.7678 34.9736 20.3173 34.7819C20.8667 34.5903 21.3012 34.3092 21.6334 33.9514C21.9657 33.5808 22.1318 33.1336 22.1318 32.5969C22.1318 31.9708 21.9529 31.498 21.5951 31.1785C21.2373 30.8591 20.7517 30.6163 20.1256 30.463C19.4995 30.3096 18.7967 30.1691 18.0172 30.0285C17.1739 29.8752 16.2794 29.6707 15.3594 29.4152C14.4394 29.1596 13.5705 28.789 12.7527 28.2907C11.9349 27.7923 11.2832 27.1407 10.7976 26.3101C10.3121 25.4795 10.0693 24.4317 10.0693 23.1923C10.0693 21.8506 10.4271 20.675 11.1426 19.64C11.8582 18.6049 12.8294 17.7871 14.0816 17.1738C15.3338 16.5605 16.7139 16.2538 18.26 16.2538C20.1256 16.2538 21.8123 16.6755 23.3073 17.506C24.8024 18.3366 25.9013 19.5633 26.6169 21.1605L22.5407 23.1923C22.1829 22.4639 21.6334 21.8633 20.8923 21.4161C20.1512 20.9689 19.2056 20.7516 18.0683 20.7516C17.4678 20.7516 16.9311 20.8411 16.4711 21.02C15.9983 21.1989 15.6405 21.4544 15.3722 21.7867C15.1038 22.1189 14.9761 22.5278 14.9761 22.9878C14.9761 23.5884 15.1677 24.0612 15.5383 24.4062C15.9216 24.7512 16.4328 25.0195 17.0972 25.1856C17.7617 25.3517 18.4772 25.5306 19.2823 25.684C20.1256 25.8373 21.0073 26.0418 21.9018 26.2973C22.7962 26.5529 23.6396 26.9234 24.4063 27.4218C25.1729 27.9074 25.7991 28.5718 26.2974 29.3896C26.783 30.2074 27.0385 31.268 27.0385 32.5586C27.0385 33.8491 26.6552 35.0886 25.8885 36.1492C25.1218 37.2098 24.0868 38.0403 22.7962 38.6409C21.5056 39.2415 20.0617 39.5481 18.4517 39.5481L18.4134 39.5226ZM20.2789 35.5486V42.896H15.6661V35.5486H20.2789ZM20.7134 12.842V20.1894H16.075V12.842H20.7134Z" fill="#A98CFF"/>
</g>
<defs>
<clipPath id="clip0_34_250">
<rect width="54" height="54" fill="white"/>
</clipPath>
</defs>
</svg>
