<svg width="61" height="61" viewBox="0 0 61 61" fill="none" xmlns="http://www.w3.org/2000/svg">
<path d="M45.92 60.23H0V21.51H6.56V53.68H45.92C50.2 53.68 53.68 50.2 53.68 45.92V22.96H60.24V45.92C60.24 53.81 53.82 60.24 45.92 60.24V60.23Z" fill="#7955DB"/>
<path d="M6.55 22.38H0V0H60.23V16.6H53.68V6.55H6.55V22.38Z" fill="#A98CFF"/>
<path d="M26.38 13.87H13.02V20.43H26.38V13.87Z" fill="#7955DB"/>
<path d="M26.38 27.41H13.02V33.97H26.38V27.41Z" fill="#7955DB"/>
<path d="M26.38 40.94H13.02V47.5H26.38V40.94Z" fill="#7955DB"/>
<path d="M47.82 40.87H34.46V47.43H47.82V40.87Z" fill="#7955DB"/>
<path d="M38.4599 33.62L29.8599 25.02L34.4999 20.38L38.2099 24.09L46.3999 14.96L51.2799 19.34L38.4599 33.62Z" fill="#7955DB"/>
</svg>
