<svg width="29" height="29" viewBox="0 0 29 29" fill="none" xmlns="http://www.w3.org/2000/svg">
<path d="M16.9025 14.9912L12.5003 10.4912C12.3334 10.3206 12.2529 10.1147 12.2586 9.87353C12.2644 9.63236 12.3507 9.42648 12.5176 9.25589C12.6845 9.0853 12.8887 9 13.1304 9C13.3721 9 13.5764 9.0853 13.7433 9.25589L18.7497 14.3735C18.8418 14.4677 18.9065 14.5647 18.9439 14.6647C18.9813 14.7647 19 14.8735 19 14.9912C19 15.1088 18.9813 15.2176 18.9439 15.3176C18.9065 15.4177 18.8418 15.5147 18.7497 15.6088L13.726 20.7441C13.5591 20.9147 13.3549 21 13.1132 21C12.8715 21 12.6672 20.9147 12.5003 20.7441C12.3334 20.5735 12.25 20.3647 12.25 20.1177C12.25 19.8706 12.3334 19.6618 12.5003 19.4912L16.9025 14.9912Z" fill="#1C1B1F"/>
</svg>
