<svg width="62" height="62" viewBox="0 0 62 62" fill="none" xmlns="http://www.w3.org/2000/svg">
<path d="M31.2299 15.01C24.6699 15.01 19.3599 20.27 19.2399 26.79C19.1899 39.14 28.4299 45.8 31.2299 48.18C34.0299 45.8 43.2699 39.13 43.2199 26.79C43.0999 20.26 37.7799 15.01 31.2299 15.01ZM36.0599 30.22C35.5799 31.08 34.8999 31.77 34.0599 32.25C33.2199 32.73 32.2799 32.98 31.2599 32.98C30.2399 32.98 29.2899 32.73 28.4299 32.25C27.5699 31.77 26.8799 31.08 26.3999 30.22C25.9099 29.36 25.6699 28.4 25.6699 27.39C25.6699 26.38 25.9099 25.44 26.3999 24.6C26.8799 23.76 27.5699 23.07 28.4299 22.57C29.2899 22.06 30.2399 21.81 31.2599 21.81C32.2799 21.81 33.2099 22.07 34.0499 22.57C34.8899 23.08 35.57 23.76 36.0499 24.6C36.5299 25.44 36.7799 26.38 36.7799 27.39C36.7799 28.4 36.5299 29.36 36.0499 30.22H36.0599Z" fill="#7955DB"/>
<path d="M19.23 27.02C19.23 26.94 19.23 26.87 19.24 26.8C19.24 26.64 19.23 26.49 19.23 26.33V27.03V27.02Z" fill="#7955DB"/>
<path d="M43.24 26.32C43.24 26.48 43.23 26.63 43.23 26.79C43.23 26.86 43.24 26.94 43.24 27.01V26.31V26.32Z" fill="#7955DB"/>
<path d="M8.11992 31.11H0.419922C0.419922 14.12 14.2399 0.299988 31.2399 0.299988V7.99999C18.4899 7.99999 8.11992 18.37 8.11992 31.12V31.11Z" fill="#A98CFF"/>
<path d="M31.2399 61.93C14.2499 61.93 0.419922 48.11 0.419922 31.11H8.11992C8.11992 43.86 18.4899 54.23 31.2399 54.23V61.93Z" fill="#7955DB"/>
<path d="M54.14 27.92C53.65 24.35 52.3 20.89 50.23 17.92L56.55 13.52C59.31 17.48 61.11 22.09 61.77 26.86L54.15 27.91L54.14 27.92Z" fill="#A98CFF"/>
<path d="M47.3002 14.48C44.5902 11.86 41.2602 9.92998 37.6602 8.89998L39.7902 1.50998C44.5902 2.88998 49.0302 5.46998 52.6402 8.94998L47.3002 14.49V14.48Z" fill="#A98CFF"/>
<path d="M54.14 27.92C53.65 24.35 52.3 20.89 50.23 17.92L56.55 13.52C59.31 17.48 61.11 22.09 61.77 26.86L54.15 27.91L54.14 27.92Z" fill="#A98CFF"/>
<path d="M47.3002 14.48C44.5902 11.86 41.2602 9.92998 37.6602 8.89998L39.7902 1.50998C44.5902 2.88998 49.0302 5.46998 52.6402 8.94998L47.3002 14.49V14.48Z" fill="#A98CFF"/>
<path d="M56.55 48.62L50.23 44.22C52.3 41.25 53.65 37.8 54.14 34.22L61.76 35.27C61.1 40.04 59.3 44.65 56.54 48.61L56.55 48.62Z" fill="#7955DB"/>
<path d="M39.7902 60.65L37.6602 53.26C41.2602 52.22 44.5902 50.29 47.3002 47.68L52.6402 53.22C49.0302 56.71 44.5802 59.28 39.7902 60.66V60.65Z" fill="#7955DB"/>
</svg>
