<svg width="60" height="64" viewBox="0 0 60 64" fill="none" xmlns="http://www.w3.org/2000/svg">
<path d="M54.9398 25.37H47.2398C47.2398 15.93 39.5598 8.23999 30.1098 8.23999C20.6598 8.23999 12.9798 15.92 12.9798 25.37H5.27979C5.27979 11.68 16.4098 0.549988 30.0998 0.549988C43.7898 0.549988 54.9198 11.68 54.9198 25.37H54.9398Z" fill="#A98CFF"/>
<path d="M6.78986 25.37H13.1699V45.83H6.78986C3.37986 45.83 0.609863 43.06 0.609863 39.65V31.55C0.609863 28.14 3.37986 25.37 6.78986 25.37Z" fill="#7955DB"/>
<path d="M24.5898 63.83V55.7H33.7698C36.0098 55.7 37.8298 57.52 37.8298 59.76C37.8298 62 36.0098 63.82 33.7698 63.82H24.5898V63.83Z" fill="#7955DB"/>
<path d="M53.4396 45.82H47.0596V25.36H53.4396C56.8496 25.36 59.6196 28.13 59.6196 31.54V39.64C59.6196 43.05 56.8496 45.82 53.4396 45.82Z" fill="#7955DB"/>
<path d="M21.1596 63.79H15.9396C9.97965 63.79 5.13965 58.94 5.13965 52.99V49.86H13.1497V52.99C13.1497 54.53 14.3996 55.79 15.9396 55.79H21.1596V63.8V63.79Z" fill="#7955DB"/>
<path d="M30.1101 47.18C23.4801 47.18 18.0801 41.78 18.0801 35.15H26.0901C26.0901 37.37 27.8901 39.17 30.1101 39.17C32.3301 39.17 34.1301 37.37 34.1301 35.15H42.1401C42.1401 41.78 36.7401 47.18 30.1101 47.18Z" fill="#7955DB"/>
</svg>
