<svg xmlns="http://www.w3.org/2000/svg" width="24" height="24" viewBox="0 0 24 24" fill="none">
  <path fill-rule="evenodd" clip-rule="evenodd" d="M13.6348 20.728V12.7667H16.3582L16.7668 9.66317H13.6348V7.68199C13.6348 6.78372 13.8881 6.17156 15.2029 6.17156L16.877 6.17088V3.39495C16.5875 3.35804 15.5937 3.27344 14.437 3.27344C12.0216 3.27344 10.368 4.71952 10.368 7.37462V9.66317H7.63635V12.7667H10.368V20.728H13.6348Z" fill="#000"/>
  <mask id="mask0_518_7235" style="mask-type:luminance" maskUnits="userSpaceOnUse" x="7" y="3" width="10" height="18">
    <path fill-rule="evenodd" clip-rule="evenodd" d="M13.6348 20.728V12.7667H16.3582L16.7668 9.66317H13.6348V7.68199C13.6348 6.78372 13.8881 6.17156 15.2029 6.17156L16.877 6.17088V3.39495C16.5875 3.35804 15.5937 3.27344 14.437 3.27344C12.0216 3.27344 10.368 4.71952 10.368 7.37462V9.66317H7.63635V12.7667H10.368V20.728H13.6348Z" fill="black"/>
  </mask>
  <g mask="url(#mask0_518_7235)">
  </g>
</svg>