<svg xmlns="http://www.w3.org/2000/svg" width="24" height="24" viewBox="0 0 24 24" fill="none">
  <path fill-rule="evenodd" clip-rule="evenodd" d="M21.8181 6.14561C21.1356 6.44807 20.4032 6.65319 19.6336 6.74477C20.4194 6.27425 21.0208 5.52795 21.3059 4.6414C20.5689 5.07713 19.7553 5.39352 18.8885 5.56504C18.1943 4.82452 17.2069 4.36328 16.1118 4.36328C14.0108 4.36328 12.3072 6.06683 12.3072 8.16671C12.3072 8.46452 12.3408 8.7554 12.4057 9.03355C9.24434 8.87477 6.44104 7.36013 4.56483 5.05858C4.23686 5.61949 4.05028 6.27307 4.05028 6.97074C4.05028 8.29071 4.72243 9.45537 5.74225 10.1368C5.11877 10.1159 4.53237 9.9444 4.01901 9.65931V9.70683C4.01901 11.5494 5.33086 13.0873 7.07031 13.4373C6.75161 13.523 6.41555 13.5705 6.06789 13.5705C5.82222 13.5705 5.58464 13.5462 5.35171 13.4998C5.8361 15.0122 7.24067 16.1119 8.90483 16.1421C7.6034 17.1619 5.96243 17.768 4.1801 17.768C3.87301 17.768 3.57052 17.7494 3.27271 17.7158C4.95655 18.7971 6.95561 19.4275 9.10416 19.4275C16.1026 19.4275 19.928 13.6308 19.928 8.60361L19.9153 8.1111C20.6627 7.57798 21.3094 6.90816 21.8181 6.14561Z" fill="#BBC3CF"/>
  <mask id="mask0_518_7236" style="mask-type:luminance" maskUnits="userSpaceOnUse" x="3" y="4" width="19" height="16">
    <path fill-rule="evenodd" clip-rule="evenodd" d="M21.8181 6.14561C21.1356 6.44807 20.4032 6.65319 19.6336 6.74477C20.4194 6.27425 21.0208 5.52795 21.3059 4.6414C20.5689 5.07713 19.7553 5.39352 18.8885 5.56504C18.1943 4.82452 17.2069 4.36328 16.1118 4.36328C14.0108 4.36328 12.3072 6.06683 12.3072 8.16671C12.3072 8.46452 12.3408 8.7554 12.4057 9.03355C9.24434 8.87477 6.44104 7.36013 4.56483 5.05858C4.23686 5.61949 4.05028 6.27307 4.05028 6.97074C4.05028 8.29071 4.72243 9.45537 5.74225 10.1368C5.11877 10.1159 4.53237 9.9444 4.01901 9.65931V9.70683C4.01901 11.5494 5.33086 13.0873 7.07031 13.4373C6.75161 13.523 6.41555 13.5705 6.06789 13.5705C5.82222 13.5705 5.58464 13.5462 5.35171 13.4998C5.8361 15.0122 7.24067 16.1119 8.90483 16.1421C7.6034 17.1619 5.96243 17.768 4.1801 17.768C3.87301 17.768 3.57052 17.7494 3.27271 17.7158C4.95655 18.7971 6.95561 19.4275 9.10416 19.4275C16.1026 19.4275 19.928 13.6308 19.928 8.60361L19.9153 8.1111C20.6627 7.57798 21.3094 6.90816 21.8181 6.14561Z" fill="white"/>
  </mask>
  <g mask="url(#mask0_518_7236)">
  </g>
</svg>